<svg width="22" height="23" viewBox="0 0 22 23" fill="none" xmlns="http://www.w3.org/2000/svg">
<path d="M8.701 3.83093L8.16406 3.89711C8.16406 3.89711 5.75506 4.16672 3.99575 5.61338H3.97513L3.95312 5.6345C3.5585 6.00619 3.38663 6.46306 3.11506 7.13113C2.79495 7.93489 2.52244 8.75768 2.299 9.59501C1.78888 11.4838 1.375 13.7717 1.375 15.8645V16.0405L1.46094 16.2165C2.09756 17.3605 3.22781 18.0891 4.27556 18.5924C5.32262 19.0958 6.22806 19.3626 6.85369 19.3844L7.26206 19.4062L7.47656 19.0324L8.22869 17.6681C9.02619 17.8525 9.94469 17.9764 11 17.9764C12.0553 17.9764 12.9738 17.8525 13.7713 17.6681L14.5234 19.0324L14.7386 19.4062L15.1463 19.3844C15.7719 19.3626 16.6774 19.0958 17.7244 18.5924C18.7722 18.0891 19.9024 17.3605 20.5391 16.2165L20.625 16.0405V15.8645C20.625 13.7717 20.2111 11.4838 19.701 9.59501C19.4776 8.75768 19.205 7.93489 18.8849 7.13113C18.6134 6.46236 18.4415 6.00619 18.0469 5.6352L18.0256 5.61267H18.0036C16.2456 4.16672 13.8359 3.89711 13.8359 3.89711L13.299 3.83093L13.1051 4.33708C13.1051 4.33708 12.9064 4.85098 12.7834 5.43739C12.1923 5.35388 11.5966 5.30968 11 5.30504C10.6322 5.30504 9.99625 5.32968 9.21663 5.43739C9.09288 4.85098 8.89419 4.33708 8.89419 4.33708L8.701 3.83093ZM7.75569 5.43739C7.78525 5.53594 7.81481 5.62112 7.84163 5.70137C6.95269 5.92664 6.00462 6.27018 5.13494 6.82279L5.86506 8.01109C7.64844 6.8777 10.2101 6.71297 11 6.71297C11.7893 6.71297 14.3516 6.8777 16.1349 8.01109L16.8651 6.82279C15.9954 6.27018 15.0473 5.92664 14.1584 5.70067C14.1852 5.62112 14.2148 5.53594 14.2443 5.43668C14.8857 5.56903 16.1109 5.87173 17.1229 6.69115C17.1174 6.69397 17.3807 7.10086 17.6172 7.68093C17.8592 8.27789 18.1273 9.07267 18.3693 9.96882C18.8341 11.6872 19.1991 13.7801 19.2287 15.6224C18.7956 16.2989 17.9932 16.9092 17.1442 17.3168C16.6117 17.5745 16.0484 17.7591 15.4688 17.8659L15.125 17.2725C15.3292 17.195 15.5306 17.1106 15.7052 17.0303C16.7633 16.5544 17.3381 16.0405 17.3381 16.0405L16.4354 14.9846C16.4354 14.9846 16.049 15.3478 15.1463 15.7547C14.245 16.1616 12.8666 16.5685 11 16.5685C9.13344 16.5685 7.75569 16.1616 6.85369 15.7547C5.951 15.3478 5.56462 14.9846 5.56462 14.9846L4.66194 16.0405C4.66194 16.0405 5.23669 16.5544 6.29475 17.0303C6.46938 17.1106 6.67081 17.1957 6.875 17.2725L6.53125 17.8666C5.95133 17.7594 5.38775 17.5743 4.85512 17.3161C4.00675 16.9092 3.20375 16.2989 2.772 15.6224C2.80088 13.7801 3.16594 11.6872 3.63138 9.96882C3.83704 9.19152 4.08797 8.42752 4.38281 7.68093C4.61931 7.10086 4.88262 6.69397 4.87712 6.69115C5.88912 5.87173 7.11425 5.56903 7.75569 5.43739ZM8.59375 10.2328C8.06231 10.2328 7.59206 10.5433 7.30469 10.9368C7.01731 11.3303 6.875 11.8139 6.875 12.3447C6.875 12.8755 7.01731 13.3591 7.30469 13.7526C7.59206 14.1462 8.06231 14.4566 8.59375 14.4566C9.12519 14.4566 9.59544 14.1462 9.88281 13.7526C10.1702 13.3591 10.3125 12.8755 10.3125 12.3447C10.3125 11.8139 10.1702 11.3303 9.88281 10.9368C9.59544 10.5433 9.12519 10.2328 8.59375 10.2328ZM13.4062 10.2328C12.8748 10.2328 12.4046 10.5433 12.1172 10.9368C11.8298 11.3303 11.6875 11.8139 11.6875 12.3447C11.6875 12.8755 11.8298 13.3591 12.1172 13.7526C12.4046 14.1462 12.8748 14.4566 13.4062 14.4566C13.9377 14.4566 14.4079 14.1462 14.6953 13.7526C14.9827 13.3591 15.125 12.8755 15.125 12.3447C15.125 11.8139 14.9827 11.3303 14.6953 10.9368C14.4079 10.5433 13.9377 10.2328 13.4062 10.2328ZM8.59375 11.6407C8.63156 11.6407 8.67969 11.6548 8.76562 11.7731C8.85156 11.8906 8.9375 12.0969 8.9375 12.3447C8.9375 12.5925 8.85156 12.7988 8.76562 12.917C8.67969 13.0346 8.63156 13.0487 8.59375 13.0487C8.55594 13.0487 8.50781 13.0346 8.42188 12.9163C8.30818 12.7486 8.24813 12.5489 8.25 12.3447C8.25 12.0969 8.33594 11.8907 8.42188 11.7724C8.50781 11.6548 8.55594 11.6407 8.59375 11.6407ZM13.4062 11.6407C13.4441 11.6407 13.4922 11.6548 13.5781 11.7731C13.6641 11.8906 13.75 12.0969 13.75 12.3447C13.75 12.5925 13.6641 12.7988 13.5781 12.917C13.4922 13.0346 13.4441 13.0487 13.4062 13.0487C13.3684 13.0487 13.3203 13.0346 13.2344 12.9163C13.1207 12.7486 13.0606 12.5489 13.0625 12.3447C13.0625 12.0969 13.1484 11.8907 13.2344 11.7724C13.3203 11.6548 13.3684 11.6407 13.4062 11.6407Z" fill="white"/>
</svg>
