<svg width="22" height="24" viewBox="0 0 22 24" fill="none" xmlns="http://www.w3.org/2000/svg">
<path fill-rule="evenodd" clip-rule="evenodd" d="M11 3.3967C6.44256 3.3967 2.75 7.17771 2.75 11.8443C2.75 15.5753 5.11362 18.7432 8.39231 19.8604C8.80619 19.9378 8.95606 19.6788 8.95606 19.4535C8.95606 19.2521 8.9485 18.7214 8.94575 18.0174C6.6495 18.5264 6.16619 16.8847 6.16619 16.8847C5.79012 15.9083 5.25044 15.6471 5.25044 15.6471C4.50106 15.1248 5.30681 15.1361 5.30681 15.1361C6.13387 15.1966 6.56906 16.0047 6.56906 16.0047C7.30469 17.2972 8.49956 16.9234 8.96981 16.7087C9.04544 16.1617 9.25994 15.79 9.49369 15.5788C7.66219 15.367 5.7365 14.6412 5.7365 11.4043C5.7365 10.48 6.05894 9.72677 6.58488 9.13544C6.50169 8.92425 6.21706 8.0633 6.66531 6.90034C6.66531 6.90034 7.35831 6.67507 8.93475 7.76622C9.60794 7.5789 10.3024 7.48374 11 7.48323C11.7013 7.48604 12.4073 7.57897 13.0652 7.76622C14.6417 6.67507 15.3319 6.90034 15.3319 6.90034C15.7829 8.0633 15.5011 8.92425 15.4144 9.13544C15.9438 9.72677 16.2607 10.48 16.2607 11.4043C16.2607 14.6496 14.333 15.3613 12.496 15.5732C12.7916 15.8316 13.0543 16.3483 13.0543 17.1353C13.0543 18.2652 13.0467 19.1754 13.0467 19.4535C13.0467 19.6788 13.1938 19.9427 13.6132 19.8604C16.8891 18.7411 19.25 15.5753 19.25 11.8443C19.25 7.17771 15.5574 3.3967 11 3.3967Z" fill="white"/>
</svg>
