<svg width="22" height="23" viewBox="0 0 22 23" fill="none" xmlns="http://www.w3.org/2000/svg">
<path d="M19.25 6.22882C18.6322 6.50888 17.9768 6.69231 17.3058 6.77299C18.0122 6.33983 18.5409 5.6586 18.7935 4.85609C18.1291 5.25928 17.4026 5.54397 16.6451 5.69803C16.181 5.19002 15.5784 4.83673 14.9156 4.6841C14.2528 4.53148 13.5604 4.58658 12.9286 4.84224C12.2968 5.09791 11.7548 5.5423 11.3729 6.11765C10.9911 6.69299 10.7871 7.37266 10.7876 8.06829C10.7876 8.34072 10.8171 8.60471 10.8769 8.85744C9.53048 8.78958 8.21309 8.43196 7.01063 7.8079C5.80818 7.18384 4.74764 6.30734 3.89813 5.23553C3.5963 5.76456 3.43798 6.36656 3.43956 6.97925C3.43956 8.18092 4.03562 9.24251 4.94587 9.86411C4.40822 9.84664 3.88249 9.69746 3.41275 9.42906V9.47341C3.41228 10.2739 3.68255 11.0499 4.1776 11.6695C4.67266 12.2891 5.36196 12.7141 6.12837 12.8722C5.62998 13.0121 5.10683 13.0328 4.59938 12.9327C4.81553 13.6214 5.23637 14.2238 5.80311 14.6556C6.36984 15.0875 7.05417 15.3274 7.7605 15.3417C7.05832 15.906 6.25433 16.323 5.39457 16.5689C4.53481 16.8147 3.63614 16.8845 2.75 16.7742C4.29724 17.7938 6.09864 18.3351 7.93856 18.3335C14.1659 18.3335 17.5718 13.051 17.5718 8.46955C17.5718 8.32172 17.5663 8.16966 17.5608 8.02112C18.2226 7.5305 18.7944 6.92397 19.25 6.22953V6.22882Z" fill="white"/>
</svg>
