<svg width="30" height="30" viewBox="0 0 30 30" fill="none" xmlns="http://www.w3.org/2000/svg">
<path fill-rule="evenodd" clip-rule="evenodd" d="M15 28.125C18.481 28.125 21.8194 26.7422 24.2808 24.2808C26.7422 21.8194 28.125 18.481 28.125 15C28.125 11.519 26.7422 8.18064 24.2808 5.71922C21.8194 3.25781 18.481 1.875 15 1.875C11.519 1.875 8.18064 3.25781 5.71922 5.71922C3.25781 8.18064 1.875 11.519 1.875 15C1.875 18.481 3.25781 21.8194 5.71922 24.2808C8.18064 26.7422 11.519 28.125 15 28.125ZM15 30C18.9782 30 22.7936 28.4196 25.6066 25.6066C28.4196 22.7936 30 18.9782 30 15C30 11.0218 28.4196 7.20644 25.6066 4.3934C22.7936 1.58035 18.9782 0 15 0C11.0218 0 7.20644 1.58035 4.3934 4.3934C1.58035 7.20644 0 11.0218 0 15C0 18.9782 1.58035 22.7936 4.3934 25.6066C7.20644 28.4196 11.0218 30 15 30Z" fill="url(#paint0_linear)"/>
<path fill-rule="evenodd" clip-rule="evenodd" d="M20.5687 9.31875C20.8311 9.05863 21.1854 8.91224 21.5549 8.91122C21.9243 8.9102 22.2794 9.05464 22.5432 9.3133C22.8071 9.57196 22.9585 9.92407 22.9648 10.2935C22.9711 10.6629 22.8317 11.02 22.5769 11.2875L15.0919 20.6437C14.9632 20.7823 14.808 20.8935 14.6354 20.9707C14.4628 21.0479 14.2764 21.0895 14.0873 21.093C13.8983 21.0965 13.7105 21.0618 13.5352 20.9911C13.3598 20.9203 13.2005 20.8149 13.0669 20.6812L8.10749 15.72C7.96933 15.5913 7.85851 15.436 7.78165 15.2635C7.70479 15.091 7.66346 14.9048 7.66013 14.716C7.6568 14.5272 7.69153 14.3396 7.76226 14.1645C7.83299 13.9894 7.93826 13.8303 8.07179 13.6968C8.20533 13.5633 8.36439 13.458 8.53949 13.3873C8.7146 13.3165 8.90215 13.2818 9.09097 13.2851C9.27979 13.2885 9.466 13.3298 9.6385 13.4067C9.811 13.4835 9.96625 13.5943 10.095 13.7325L14.0212 17.6569L20.5331 9.36C20.5447 9.34547 20.5573 9.3317 20.5706 9.31875H20.5687Z" fill="url(#paint1_linear)"/>
<defs>
<linearGradient id="paint0_linear" x1="0" y1="15" x2="30" y2="15" gradientUnits="userSpaceOnUse">
<stop stop-color="#56AB2F"/>
<stop offset="1" stop-color="#A8E063"/>
</linearGradient>
<linearGradient id="paint1_linear" x1="7.65991" y1="15.0022" x2="22.965" y2="15.0022" gradientUnits="userSpaceOnUse">
<stop stop-color="#56AB2F"/>
<stop offset="1" stop-color="#A8E063"/>
</linearGradient>
</defs>
</svg>
