<svg width="30" height="30" viewBox="0 0 30 30" fill="none" xmlns="http://www.w3.org/2000/svg">
<path d="M3.75 3.75H26.25V26.25H3.75V3.75ZM24.4062 20.8838C24.2425 19.8575 23.5738 18.995 21.5913 18.19C20.9013 17.8663 20.135 17.6425 19.905 17.1225C19.82 16.8125 19.8075 16.645 19.8625 16.4612C20.0037 15.8562 20.7213 15.675 21.2838 15.8425C21.65 15.955 21.9875 16.2363 22.1988 16.6875C23.1675 16.0538 23.1675 16.0537 23.8438 15.6325C23.59 15.24 23.4637 15.0688 23.295 14.9C22.7037 14.24 21.9163 13.9025 20.6375 13.9313L19.9775 14.015C19.3438 14.17 18.7388 14.5087 18.3738 14.9575C17.305 16.1675 17.6138 18.2762 18.9075 19.15C20.1863 20.1062 22.0587 20.3162 22.2975 21.2162C22.5225 22.3137 21.4825 22.665 20.4538 22.5387C19.695 22.3687 19.2725 21.99 18.8088 21.2862L17.0938 22.2712C17.29 22.72 17.515 22.9175 17.8525 23.3113C19.4837 24.9562 23.5625 24.8725 24.2937 22.3688C24.32 22.285 24.5187 21.7088 24.3637 20.8225L24.4062 20.8838ZM15.985 14.0912H13.8775C13.8775 15.9075 13.8688 17.7137 13.8688 19.5337C13.8688 20.6887 13.9275 21.7488 13.7388 22.075C13.43 22.7213 12.6313 22.6387 12.27 22.5237C11.8988 22.3412 11.71 22.0875 11.4913 21.7225C11.4325 21.625 11.3887 21.54 11.3725 21.54L9.6625 22.595C9.94875 23.1863 10.3663 23.6937 10.905 24.0162C11.7062 24.495 12.7825 24.65 13.91 24.3975C14.645 24.185 15.2788 23.7487 15.6075 23.0737C16.0875 22.2025 15.985 21.1325 15.9812 19.9375C15.9913 18.0112 15.9812 16.0837 15.9812 14.1437L15.985 14.0912Z" fill="white"/>
</svg>
