<svg width="30" height="30" viewBox="0 0 30 30" fill="none" xmlns="http://www.w3.org/2000/svg">
<path d="M15.1603 17.5312C14.7094 17.7384 14.2153 18.0084 13.2262 18.5512C12.8512 18.7622 12.4594 18.9731 12.0947 19.1719C12.0694 19.1466 12.0431 19.1147 12.0178 19.0884C10.0612 16.9978 6.4425 15.5212 6.59625 12.7134C6.65344 11.6906 7.005 9.00562 13.5459 5.745C18.9291 3.09187 23.2125 3.82687 23.9522 5.45719C25.0153 7.78125 21.6562 12.1059 16.0969 12.7331C15.4816 12.8579 14.8461 12.8429 14.2374 12.689C13.6288 12.5352 13.0624 12.2465 12.5803 11.8444C12.2859 11.5247 12.2419 11.5059 12.1331 11.5697C11.9541 11.6634 12.0694 11.9531 12.1331 12.1191C12.3452 12.503 12.6321 12.8405 12.9768 13.1117C13.3216 13.3829 13.7172 13.5822 14.1403 13.6978C16.3281 14.1707 18.6091 13.9447 20.6616 13.0519C24.0309 11.7478 26.6616 8.1225 25.8909 5.08312C25.1175 2.00156 20.0025 0.985311 15.1631 2.70469C12.1324 3.72599 9.33237 5.33373 6.9225 7.43625C4.25625 9.93 3.83437 12.0975 4.00687 13.005C4.6275 16.2272 9.06937 18.3244 10.8506 19.8778C10.7569 19.9294 10.6781 19.9716 10.6078 20.0119C9.71906 20.4534 6.33094 22.2244 5.48625 24.0975C4.52719 26.22 5.64 27.7416 6.375 27.9459C7.48264 28.2113 8.6455 28.124 9.70117 27.6965C10.7568 27.2689 11.6526 26.5223 12.2634 25.5609C12.7821 24.7638 13.1006 23.8531 13.1919 22.9064C13.2831 21.9597 13.1444 21.005 12.7875 20.1234C12.9981 19.9555 13.2226 19.8059 13.4587 19.6763C13.9125 19.4081 14.3447 19.1437 14.7281 18.9394C16.041 18.3244 17.4737 18.0078 18.9234 18.0122C21.9666 18.3703 22.5675 20.2687 22.4522 21.0684C22.3982 21.3522 22.2841 21.621 22.1176 21.857C21.951 22.0929 21.7359 22.2904 21.4866 22.4362C21.2756 22.5703 21.2053 22.6153 21.2241 22.7109C21.2494 22.8516 21.3516 22.845 21.5306 22.8197C21.9878 22.6752 22.3906 22.3958 22.6861 22.0181C22.9816 21.6405 23.156 21.1823 23.1862 20.7037C23.28 18.8287 21.4922 16.7719 18.3272 16.7906C17.3795 16.7923 16.4413 16.9792 15.5653 17.3409C15.4247 17.3991 15.2881 17.4616 15.1556 17.5284L15.1603 17.5312ZM10.6369 24.8803C9.62625 25.98 8.22 26.3953 7.6125 26.0437C6.95625 25.6687 7.21594 24.0422 8.45625 22.8787C9.19084 22.2169 9.98481 21.6241 10.8281 21.1078C10.9753 21.0141 11.1928 20.8903 11.4544 20.7328L11.5247 20.6944L11.6784 20.6006C11.8996 21.3423 11.9198 22.1294 11.7368 22.8814C11.5537 23.6334 11.1742 24.3232 10.6369 24.8803Z" fill="white"/>
</svg>
