<svg width="24" height="36" viewBox="0 0 24 36" fill="none" xmlns="http://www.w3.org/2000/svg">
<path d="M12 0C5.39067 0 0 5.44105 0 12.1122C0 14.0043 0.76 16.1764 1.792 18.5464C2.82267 20.9177 4.152 23.4357 5.5 25.78C7.19851 28.7215 9.00556 31.5976 10.9173 34.4025L12 36L13.084 34.4012C13.084 34.4012 15.8027 30.4755 18.5 25.78C19.8493 23.4357 21.1773 20.9177 22.208 18.5464C23.24 16.1764 24 14.0043 24 12.1122C24 5.44105 18.6093 0 12 0ZM12 2.69159C17.172 2.69159 21.3333 6.89181 21.3333 12.1122C21.3333 13.1888 20.76 15.229 19.792 17.4536C18.8227 19.6769 17.4853 22.1424 16.1667 24.4342C14.0733 28.0827 12.7707 30.0126 12 31.1632C11.2293 30.0126 9.92667 28.0827 7.83333 24.4342C6.516 22.1424 5.17733 19.6769 4.208 17.4536C3.24 15.229 2.66667 13.1888 2.66667 12.1122C2.66667 6.89181 6.828 2.69159 12 2.69159ZM12 9.42056C11.2928 9.42056 10.6145 9.70414 10.1144 10.2089C9.61429 10.7137 9.33333 11.3983 9.33333 12.1122C9.33333 12.826 9.61429 13.5106 10.1144 14.0154C10.6145 14.5202 11.2928 14.8037 12 14.8037C12.7072 14.8037 13.3855 14.5202 13.8856 14.0154C14.3857 13.5106 14.6667 12.826 14.6667 12.1122C14.6667 11.3983 14.3857 10.7137 13.8856 10.2089C13.3855 9.70414 12.7072 9.42056 12 9.42056Z" fill="white"/>
</svg>
