<svg width="30" height="30" viewBox="0 0 30 30" fill="none" xmlns="http://www.w3.org/2000/svg">
<path d="M15 1.875C14.5275 1.875 14.0663 2.0475 13.711 2.40281L11.0738 5.06813C10.9313 5.145 10.8113 5.25563 10.7231 5.39063L2.40189 13.7109C2.06057 14.0531 1.8689 14.5167 1.8689 15C1.8689 15.4833 2.06057 15.9469 2.40189 16.2891L13.711 27.5981C14.0541 27.9376 14.5173 28.128 15 28.128C15.4827 28.128 15.9459 27.9376 16.2891 27.5981L27.5981 16.2891C27.9395 15.9469 28.1311 15.4833 28.1311 15C28.1311 14.5167 27.9395 14.0531 27.5981 13.7109L16.2881 2.40188C16.1191 2.23308 15.9181 2.09958 15.697 2.00913C15.4758 1.91868 15.2389 1.87309 15 1.875ZM15 3.77906L26.221 15L15 26.2209L3.77908 15L11.5435 7.23656L13.1841 8.87719C13.142 9.03969 13.1221 9.20716 13.125 9.375C13.125 10.0669 13.5019 10.6603 14.0625 10.9866V19.0134C13.5019 19.3397 13.125 19.9322 13.125 20.625C13.125 21.1223 13.3226 21.5992 13.6742 21.9508C14.0258 22.3025 14.5027 22.5 15 22.5C15.4973 22.5 15.9742 22.3025 16.3258 21.9508C16.6775 21.5992 16.875 21.1223 16.875 20.625C16.875 19.9331 16.4981 19.3397 15.9375 19.0134V11.6606L18.8091 14.5313C18.7373 14.8084 18.73 15.0982 18.7877 15.3786C18.8454 15.659 18.9666 15.9225 19.1419 16.1488C19.3172 16.375 19.5421 16.5582 19.7992 16.684C20.0562 16.8099 20.3388 16.8753 20.625 16.875C21.66 16.875 22.4991 16.0359 22.4991 15C22.4995 14.7137 22.4343 14.431 22.3084 14.1738C22.1826 13.9166 21.9995 13.6917 21.7732 13.5162C21.5469 13.3408 21.2834 13.2196 21.0029 13.1618C20.7225 13.1041 20.4325 13.1114 20.1553 13.1831L16.816 9.84375C16.8877 9.56663 16.895 9.27675 16.8373 8.99636C16.7796 8.71598 16.6585 8.45254 16.4831 8.22625C16.3078 7.99996 16.083 7.81685 15.8259 7.69096C15.5688 7.56507 15.2863 7.49974 15 7.5C14.8325 7.49717 14.6653 7.51704 14.5031 7.55906L12.8625 5.91844L15 3.77906Z" fill="white"/>
</svg>
