<svg width="32" height="32" viewBox="0 0 32 32" fill="none" xmlns="http://www.w3.org/2000/svg">
<path d="M5.21899 4L5.31199 5.094L7.06199 24.875L7.12499 25.563L7.78099 25.75L15.719 27.969L15.969 28.031L16.25 27.969L24.188 25.781L24.844 25.594L24.906 24.906L26.688 5.094L26.781 4.031H25.688L6.31299 4H5.21899ZM7.40599 6L24.594 6.031L22.969 24.031L16 25.97L8.99999 24.03L7.40599 6ZM9.81299 9L10.469 16.469H19.031L18.75 19.687L16 20.437H15.969L13.219 19.687L13.063 17.625H10.563L10.906 21.594L15.97 23H16L21.063 21.594L21.75 14H12.719L12.5 11.469H21.969L22.187 9H9.81299Z" fill="white"/>
</svg>
