<svg width="32" height="32" viewBox="0 0 32 32" fill="none" xmlns="http://www.w3.org/2000/svg">
<g clip-path="url(#clip0)">
<path d="M16.672 0C16.464 0 16.251 0.011 16.031 0.027C10.396 0.474 11.891 6.438 11.807 8.427C11.703 9.88 11.407 11.031 10.407 12.454C9.22399 13.855 7.56799 16.121 6.78199 18.479C6.41299 19.588 6.23499 20.73 6.40199 21.803C6.33909 21.8496 6.28749 21.9098 6.25099 21.979C5.90699 22.339 5.65099 22.782 5.36999 23.099C5.10499 23.364 4.72499 23.454 4.30699 23.631C3.89099 23.812 3.42699 23.99 3.15599 24.542C3.03599 24.793 2.97299 25.063 2.97899 25.345C2.97899 25.605 3.01599 25.876 3.05199 26.058C3.13099 26.589 3.20799 27.027 3.10399 27.35C2.77099 28.255 2.73499 28.875 2.96399 29.329C3.19699 29.777 3.67699 29.954 4.21299 30.132C5.29699 30.397 6.75999 30.313 7.91699 30.928C9.14999 31.553 10.406 31.824 11.406 31.559C11.7509 31.4817 12.0743 31.3284 12.3526 31.1105C12.6309 30.8925 12.8572 30.6153 13.015 30.299C13.796 30.294 14.655 29.939 16.026 29.851C16.958 29.772 18.125 30.21 19.463 30.116C19.499 30.299 19.546 30.381 19.619 30.564V30.569C20.139 31.605 21.103 32.074 22.135 31.996C23.16 31.913 24.254 31.283 25.139 30.252C25.983 29.236 27.384 28.808 28.311 28.252C28.775 27.985 29.15 27.627 29.176 27.111C29.207 26.58 28.911 26.028 28.228 25.278V25.147L28.223 25.142C27.994 24.877 27.89 24.429 27.77 23.909C27.655 23.372 27.53 22.862 27.114 22.513C27.03 22.44 26.947 22.424 26.859 22.336C26.7851 22.2839 26.6982 22.2535 26.608 22.248C27.181 20.544 26.957 18.852 26.373 17.325C25.665 15.445 24.42 13.805 23.477 12.68C22.414 11.341 21.373 10.071 21.394 8.191C21.43 5.32 21.711 0.014 16.67 0.003L16.672 0ZM17.375 4.541H17.396C17.677 4.541 17.921 4.625 18.172 4.802C18.427 4.983 18.615 5.245 18.755 5.515C18.896 5.859 18.97 6.124 18.979 6.478C18.979 6.453 18.984 6.426 18.984 6.401V6.541C18.984 6.53 18.979 6.521 18.979 6.51L18.974 6.478C18.974 6.802 18.907 7.125 18.777 7.421C18.7152 7.58951 18.6172 7.74243 18.49 7.869C18.454 7.849 18.417 7.828 18.375 7.812C18.235 7.749 18.11 7.729 17.995 7.636C17.9004 7.59809 17.8027 7.56832 17.703 7.547C17.766 7.47 17.896 7.37 17.948 7.282C18.016 7.115 18.052 6.933 18.063 6.746V6.719C18.0658 6.53848 18.0374 6.35883 17.979 6.188C17.922 6.011 17.85 5.921 17.74 5.745C17.625 5.656 17.516 5.568 17.38 5.568H17.36C17.235 5.568 17.125 5.604 17.011 5.745C16.8859 5.86835 16.7928 6.02044 16.74 6.188C16.6673 6.35601 16.6266 6.53608 16.62 6.719V6.746C16.62 6.865 16.631 6.985 16.645 7.105C16.385 7.017 16.062 6.922 15.833 6.834C15.8205 6.74618 15.8135 6.65768 15.812 6.569V6.542C15.8019 6.18983 15.8698 5.83979 16.011 5.517C16.12 5.225 16.318 4.974 16.584 4.808C16.812 4.637 17.088 4.543 17.375 4.543V4.541ZM13.427 4.62H13.474C13.662 4.62 13.834 4.683 14.006 4.797C14.203 4.969 14.361 5.182 14.465 5.416C14.585 5.683 14.652 5.953 14.673 6.307V6.312C14.678 6.489 14.678 6.584 14.668 6.667V6.776L14.559 6.807C14.356 6.88 14.195 6.984 14.032 7.074C14.048 6.954 14.048 6.834 14.037 6.719V6.698C14.022 6.522 13.985 6.433 13.928 6.255C13.8853 6.11812 13.8082 5.99451 13.704 5.896C13.6385 5.83761 13.5526 5.80742 13.465 5.812H13.433C13.34 5.817 13.261 5.864 13.189 5.989C13.1008 6.0904 13.0448 6.2157 13.028 6.349C12.991 6.489 12.98 6.64 12.996 6.792V6.807C13.012 6.99 13.043 7.079 13.105 7.255C13.1452 7.39066 13.2208 7.51318 13.324 7.61C13.34 7.626 13.351 7.637 13.371 7.641C13.278 7.72 13.215 7.736 13.138 7.824C13.085 7.861 13.029 7.908 12.961 7.919C12.8223 7.75218 12.7001 7.57234 12.596 7.382C12.4684 7.10168 12.3977 6.79884 12.388 6.491C12.3678 6.19014 12.403 5.88812 12.492 5.6C12.571 5.34 12.696 5.095 12.872 4.887C13.044 4.71 13.216 4.622 13.429 4.622L13.427 4.62ZM15.255 6.896C15.698 6.896 16.23 6.979 16.875 7.427C17.266 7.694 17.574 7.787 18.282 8.047C18.626 8.23 18.823 8.407 18.922 8.584V8.407C18.9695 8.50359 18.9959 8.60917 18.9995 8.71674C19.0031 8.82432 18.9839 8.93143 18.943 9.031C18.776 9.448 18.255 9.891 17.522 10.156V10.161C17.167 10.338 16.855 10.604 16.49 10.781C16.121 10.958 15.703 11.172 15.141 11.136C14.9375 11.1449 14.7341 11.1147 14.542 11.047C14.3939 10.9684 14.2512 10.8798 14.115 10.782C13.855 10.605 13.631 10.339 13.298 10.162V10.157H13.293C12.756 9.829 12.47 9.474 12.376 9.209C12.288 8.85 12.371 8.585 12.637 8.408C12.933 8.231 13.141 8.048 13.277 7.96C13.417 7.861 13.47 7.824 13.512 7.788H13.517V7.783C13.741 7.512 14.094 7.158 14.637 6.98C14.818 6.933 15.028 6.897 15.256 6.897L15.255 6.896ZM18.984 9.749C19.464 11.64 20.584 14.385 21.303 15.713C21.683 16.426 22.443 17.926 22.771 19.745C22.979 19.74 23.208 19.77 23.454 19.833C24.318 17.604 22.73 15.208 22.006 14.541C21.709 14.276 21.694 14.098 21.839 14.098C22.626 14.806 23.656 16.193 24.031 17.77C24.203 18.483 24.246 19.245 24.063 19.999C24.151 20.035 24.24 20.082 24.334 20.087C25.709 20.802 26.219 21.338 25.974 22.139V22.082C25.897 22.078 25.813 22.082 25.735 22.082H25.714C25.918 21.458 25.47 20.978 24.293 20.447C23.074 19.916 22.1 19.999 21.933 21.067C21.9212 21.1273 21.9145 21.1885 21.913 21.25C21.818 21.281 21.725 21.317 21.632 21.333C21.059 21.693 20.751 22.229 20.575 22.917C20.403 23.63 20.351 24.458 20.304 25.412C20.272 25.86 20.075 26.531 19.876 27.213C17.876 28.645 15.1 29.265 12.747 27.661C12.595 27.401 12.418 27.161 12.21 26.948C12.1101 26.7825 11.9857 26.6331 11.841 26.505C12.085 26.505 12.294 26.464 12.461 26.416C12.6517 26.3241 12.8017 26.1649 12.882 25.969C13.023 25.614 12.882 25.041 12.418 24.416C11.961 23.797 11.179 23.093 10.038 22.391C9.19499 21.86 8.72099 21.23 8.50199 20.531C8.28299 19.818 8.31399 19.083 8.48099 18.339C8.80899 16.912 9.64799 15.522 10.185 14.651C10.325 14.568 10.232 14.834 9.63799 15.954C9.11099 16.954 8.11699 19.282 9.47499 21.089C9.52718 19.7693 9.82034 18.4702 10.34 17.256C11.089 15.553 12.663 12.585 12.788 10.231C12.851 10.283 13.075 10.414 13.173 10.502C13.46 10.679 13.678 10.945 13.96 11.122C14.241 11.387 14.595 11.57 15.127 11.57C15.179 11.575 15.226 11.575 15.272 11.575C15.819 11.575 16.247 11.398 16.6 11.22C16.985 11.037 17.299 10.772 17.589 10.684H17.594C18.214 10.507 18.709 10.147 18.985 9.751L18.984 9.749ZM21.901 21.693C21.953 22.494 22.36 23.354 23.078 23.53C23.859 23.707 24.989 23.087 25.463 22.51L25.744 22.499C26.165 22.488 26.515 22.51 26.873 22.854L26.878 22.859C27.154 23.124 27.285 23.567 27.399 24.026C27.514 24.562 27.602 25.067 27.946 25.447C28.591 26.15 28.805 26.655 28.795 26.968C28.774 27.316 28.544 27.493 28.128 27.759C27.289 28.296 25.8 28.707 24.852 29.854C24.028 30.838 23.024 31.374 22.137 31.442C21.252 31.515 20.486 31.177 20.038 30.245L20.033 30.24C19.752 29.708 19.872 28.875 20.106 27.989C20.341 27.098 20.679 26.193 20.726 25.458C20.773 24.505 20.825 23.677 20.981 23.035C21.142 22.415 21.393 21.972 21.841 21.728L21.898 21.696L21.901 21.693ZM7.47899 21.76H7.49499C7.56799 21.76 7.63599 21.765 7.70299 21.781C8.20299 21.854 8.64599 22.224 9.06799 22.781L10.281 25L10.286 25.005C10.609 25.713 11.291 26.421 11.869 27.188C12.448 27.984 12.896 28.697 12.844 29.281V29.292C12.765 30.281 12.203 30.817 11.344 31.016C10.484 31.193 9.31699 31.016 8.15099 30.396C6.85999 29.683 5.32299 29.771 4.33899 29.593C3.84999 29.505 3.52699 29.322 3.37499 29.057C3.22999 28.792 3.22399 28.254 3.54199 27.416V27.412C3.69799 26.964 3.58499 26.407 3.50599 25.917C3.43299 25.385 3.39699 24.973 3.56299 24.666C3.77599 24.218 4.09399 24.135 4.48399 23.953C4.87499 23.776 5.33899 23.688 5.70299 23.328H5.70799V23.323C6.04699 22.97 6.30299 22.527 6.59899 22.208C6.84999 21.937 7.10399 21.76 7.47899 21.76ZM17.027 9.661C16.448 9.926 15.766 10.374 15.042 10.374C14.318 10.374 13.75 10.021 13.339 9.754C13.131 9.573 12.964 9.395 12.839 9.306C12.62 9.13 12.646 8.859 12.74 8.859C12.885 8.879 12.912 9.04 13.005 9.13C13.136 9.218 13.292 9.395 13.484 9.573C13.875 9.838 14.396 10.197 15.041 10.197C15.688 10.197 16.448 9.838 16.906 9.573C17.166 9.396 17.499 9.13 17.77 8.953C17.978 8.77 17.969 8.593 18.139 8.593C18.311 8.614 18.187 8.77 17.947 9.036C17.702 9.219 17.327 9.484 17.026 9.661H17.027ZM15.584 7.547V7.522C15.579 7.495 15.599 7.465 15.625 7.454C15.718 7.397 15.864 7.417 15.969 7.459C16.052 7.459 16.182 7.547 16.172 7.64C16.161 7.703 16.057 7.729 15.989 7.729C15.917 7.729 15.864 7.672 15.802 7.636C15.734 7.615 15.603 7.625 15.583 7.547H15.584ZM14.849 7.547C14.822 7.626 14.697 7.615 14.63 7.636C14.567 7.672 14.515 7.729 14.442 7.729C14.374 7.729 14.265 7.702 14.259 7.636C14.25 7.547 14.374 7.459 14.458 7.459C14.567 7.416 14.702 7.396 14.806 7.454C14.827 7.465 14.854 7.495 14.843 7.522V7.547H14.849Z" fill="white"/>
</g>
<defs>
<clipPath id="clip0">
<rect width="32" height="32" fill="white"/>
</clipPath>
</defs>
</svg>
