<svg width="30" height="30" viewBox="0 0 30 30" fill="none" xmlns="http://www.w3.org/2000/svg">
<path d="M28.0069 13.0913C27.6467 10.6632 26.6156 8.38407 25.0298 6.51053C23.444 4.63699 21.3665 3.24355 19.0313 2.48719C18.142 2.2048 17.2264 2.01319 16.2985 1.91532C16.0519 1.89001 14.356 1.86188 14.1422 1.88251C14.086 1.88251 13.906 1.90501 13.7447 1.91813C11.8754 2.09907 10.0665 2.67811 8.43957 3.61632C6.81265 4.55454 5.40544 5.83018 4.31255 7.35751C3.09002 9.05439 2.29531 11.0214 1.99599 13.0913C1.89515 13.7222 1.85466 14.3614 1.87505 15C1.85358 15.6395 1.89314 16.2796 1.99318 16.9116C2.35274 19.34 3.38358 21.6198 4.96947 23.4937C6.55537 25.3677 8.63323 26.7613 10.9688 27.5175C11.8705 27.8032 12.7991 27.9958 13.7401 28.0922C14.5776 28.1363 15.4169 28.1363 16.2544 28.0922C17.9036 27.9309 19.5078 27.4619 20.9841 26.7094C21.2091 26.5941 21.2532 26.5631 21.2222 26.5378C21.1913 26.5125 20.2397 25.2319 19.0847 23.6719L16.9857 20.8369L14.3607 16.9444C12.9132 14.805 11.7226 13.0556 11.7122 13.0556C11.7019 13.0556 11.6916 14.7816 11.6869 16.8938C11.7539 18.2061 11.7351 19.5214 11.6307 20.8313C11.5856 20.9335 11.5055 21.0163 11.4047 21.0647C11.3222 21.1059 11.2501 21.1134 10.8629 21.1134H10.4194L10.3013 21.0394C10.2281 20.9934 10.1686 20.9286 10.1288 20.8519L10.0754 20.7366L10.0801 15.5925L10.0885 10.4456L10.1672 10.3453C10.2204 10.2828 10.2838 10.2299 10.3547 10.1888C10.4597 10.1381 10.501 10.1325 10.9444 10.1325C11.4685 10.1325 11.5557 10.1531 11.6944 10.3022C11.7329 10.3434 13.1569 12.4875 14.8604 15.0713C16.5638 17.655 18.8916 21.1828 20.0391 22.9144L22.1157 26.0625L22.2207 25.9931C23.2214 25.3277 24.1286 24.5313 24.9179 23.625C26.5715 21.7325 27.6441 19.4031 28.0069 16.9163C28.1073 16.2827 28.1468 15.6411 28.1251 15C28.1464 14.3614 28.1068 13.7223 28.0069 13.0913V13.0913ZM19.7935 14.8303L19.786 19.4438L18.9722 18.1969L18.1566 16.95V13.5938C18.1566 11.4263 18.1669 10.2075 18.1819 10.1484C18.2002 10.0802 18.2322 10.0163 18.2758 9.96071C18.3195 9.90512 18.374 9.85895 18.436 9.82501C18.541 9.77063 18.5794 9.76594 18.9826 9.76594C19.3576 9.76594 19.4288 9.77063 19.5132 9.81751C19.5745 9.84803 19.6291 9.89056 19.6737 9.94257C19.7183 9.99459 19.7521 10.055 19.7729 10.1203C19.7935 10.1897 19.7982 11.6156 19.7935 14.8303V14.8303Z" fill="white"/>
</svg>
