<svg width="30" height="30" viewBox="0 0 30 30" fill="none" xmlns="http://www.w3.org/2000/svg">
<path d="M19.9688 5.625C19.8942 5.625 19.8226 5.65463 19.7699 5.70738C19.7171 5.76012 19.6875 5.83166 19.6875 5.90625V11.0597L18.5194 10.3781C18.4473 10.3355 18.365 10.313 18.2812 10.313C18.1975 10.313 18.1152 10.3355 18.0431 10.3781L15.2363 12.015C15.1645 12.0564 15.1049 12.116 15.0634 12.1878C15.0219 12.2595 15.0001 12.3409 15 12.4238V15.7013C15 15.87 15.09 16.0256 15.2363 16.11L18.0431 17.7469C18.1152 17.7895 18.1975 17.812 18.2812 17.812C18.365 17.812 18.4473 17.7895 18.5194 17.7469L21.3263 16.11C21.398 16.0686 21.4576 16.009 21.4991 15.9372C21.5406 15.8655 21.5624 15.7841 21.5625 15.7013V6.77813C21.5623 6.69636 21.5407 6.61608 21.4999 6.54521C21.4591 6.47435 21.4006 6.41535 21.33 6.37406L20.1084 5.66344C20.0664 5.6386 20.0185 5.62534 19.9697 5.625H19.9688ZM10.7812 10.3144C10.6976 10.3143 10.6155 10.3363 10.5431 10.3781L7.73625 12.015C7.66449 12.0564 7.60488 12.116 7.56341 12.1878C7.52195 12.2595 7.50008 12.3409 7.5 12.4238V15.7013C7.5 15.87 7.59 16.0256 7.73625 16.11L10.5431 17.7469C10.6903 17.8313 10.8713 17.8313 11.0194 17.7469L13.8263 16.11C13.898 16.0686 13.9576 16.009 13.9991 15.9372C14.0406 15.8655 14.0624 15.7841 14.0625 15.7013V12.4238C14.0626 12.3408 14.0408 12.2594 13.9993 12.1876C13.9579 12.1158 13.8981 12.0563 13.8263 12.015L11.0194 10.3781C10.947 10.3363 10.8649 10.3143 10.7812 10.3144ZM25.7812 10.3144C25.6976 10.314 25.6154 10.336 25.5431 10.3781L22.7362 12.015C22.6645 12.0564 22.6049 12.116 22.5634 12.1878C22.5219 12.2595 22.5001 12.3409 22.5 12.4238V15.7013C22.5 15.87 22.59 16.0256 22.7362 16.11L25.4587 17.7553C25.5307 17.799 25.6131 17.8224 25.6973 17.823C25.7815 17.8237 25.8642 17.8016 25.9369 17.7591L27.2756 16.9809C27.3071 16.9624 27.3332 16.9359 27.3514 16.9042C27.3695 16.8725 27.379 16.8366 27.379 16.8C27.379 16.7635 27.3695 16.7275 27.3514 16.6958C27.3332 16.6641 27.3071 16.6376 27.2756 16.6191L24.375 14.91V13.2281L25.7812 12.4097L27.1875 13.2281V14.4C27.1875 14.5566 27.3187 14.5809 27.4069 14.5284C27.8808 14.2517 28.3552 13.9758 28.83 13.7006C28.9006 13.6594 28.9593 13.6004 29 13.5295C29.0408 13.4587 29.0624 13.3783 29.0625 13.2966V12.4247C29.0626 12.3418 29.0408 12.2603 28.9993 12.1885C28.9579 12.1168 28.8981 12.0572 28.8263 12.0159L26.0194 10.3791C25.9471 10.337 25.8649 10.315 25.7812 10.3153V10.3144ZM3.28125 10.3162C3.1976 10.3158 3.11537 10.3378 3.04313 10.38L0.23625 12.015C0.164403 12.0568 0.104777 12.1167 0.063322 12.1888C0.0218673 12.2608 3.3686e-05 12.3425 0 12.4256V16.6097C0 16.8141 0.22125 16.9406 0.3975 16.8384L1.6425 16.1138C1.71321 16.0724 1.77187 16.0132 1.81265 15.9422C1.85344 15.8711 1.87493 15.7907 1.875 15.7088V13.2309L3.28125 12.4106L4.6875 13.2309V15.7088C4.6875 15.8756 4.77656 16.0284 4.92 16.1128L6.165 16.8384C6.2052 16.8619 6.25087 16.8743 6.2974 16.8744C6.34392 16.8745 6.38966 16.8624 6.42999 16.8392C6.47032 16.816 6.50381 16.7825 6.52707 16.7422C6.55034 16.7019 6.56256 16.6562 6.5625 16.6097V12.4256C6.56247 12.3425 6.54063 12.2608 6.49918 12.1888C6.45772 12.1167 6.3981 12.0568 6.32625 12.015L3.51937 10.38C3.44713 10.3378 3.3649 10.3158 3.28125 10.3162ZM18.2812 12.4088L19.6875 13.2291V14.8959L18.2812 15.7163L16.875 14.8959V13.2281L18.2812 12.4078V12.4088ZM25.7812 13.1288L24.9778 13.5975V14.5331L25.7812 15L26.5847 14.5331V13.5975L25.7812 13.1288ZM14.4431 16.8731C14.3457 16.8726 14.2498 16.8971 14.1647 16.9444L11.5284 18.4688C11.4436 18.5168 11.3731 18.5867 11.3242 18.671C11.2752 18.7554 11.2496 18.8512 11.25 18.9488V21.9919C11.25 22.1878 11.3597 22.3725 11.5284 22.4719L12.2222 22.8675C12.555 23.0316 12.6778 23.0316 12.8287 23.0316C13.3256 23.0316 13.6087 22.7344 13.6087 22.2094V19.2028C13.609 19.1926 13.6072 19.1824 13.6034 19.1728C13.5997 19.1633 13.5941 19.1546 13.5869 19.1472C13.5797 19.1399 13.5712 19.1341 13.5617 19.1301C13.5523 19.1261 13.5421 19.1241 13.5319 19.1241H13.1981C13.1772 19.1241 13.1572 19.1324 13.1424 19.1471C13.1277 19.1619 13.1194 19.1819 13.1194 19.2028V22.2094C13.1194 22.4372 12.8784 22.6716 12.4856 22.4756L11.7638 22.0594C11.752 22.052 11.7422 22.0417 11.7353 22.0296C11.7285 22.0175 11.7247 22.0039 11.7244 21.99V18.9469C11.7244 18.9197 11.7375 18.8878 11.7647 18.8738L14.4009 17.3541C14.4136 17.3471 14.4278 17.3434 14.4422 17.3434C14.4566 17.3434 14.4708 17.3471 14.4834 17.3541L17.1225 18.8728C17.1497 18.8878 17.1628 18.915 17.1628 18.9469V21.99C17.1627 22.0046 17.159 22.0189 17.152 22.0317C17.1449 22.0445 17.1348 22.0553 17.1225 22.0631L14.4834 23.5884C14.4708 23.5954 14.4566 23.5991 14.4422 23.5991C14.4278 23.5991 14.4136 23.5954 14.4009 23.5884L13.7278 23.1872C13.7091 23.1778 13.6809 23.1731 13.6631 23.1825C13.5398 23.2616 13.406 23.3231 13.2656 23.3653C13.2197 23.3794 13.1578 23.4075 13.29 23.4806L14.1647 24.0009C14.2502 24.0475 14.3458 24.0726 14.4431 24.0741C14.5401 24.075 14.6354 24.0484 14.7178 23.9972L17.355 22.4719C17.4398 22.4238 17.5103 22.354 17.5593 22.2696C17.6082 22.1853 17.6338 22.0894 17.6334 21.9919V18.9488C17.6322 18.8516 17.6059 18.7563 17.5572 18.6722C17.5084 18.5882 17.4388 18.5181 17.355 18.4688L14.7178 16.9453C14.6341 16.8978 14.5394 16.8733 14.4431 16.8741V16.8731ZM18.5559 18.2775C18.4895 18.2776 18.4237 18.2908 18.3623 18.3164C18.3009 18.342 18.2452 18.3793 18.1982 18.4264C18.1035 18.5216 18.0504 18.6504 18.0506 18.7847C18.0509 18.919 18.1044 19.0476 18.1996 19.1424C18.2947 19.2372 18.4235 19.2902 18.5578 19.29C18.6921 19.2898 18.8207 19.2362 18.9155 19.1411C19.0103 19.0459 19.0634 18.9171 19.0631 18.7828C19.0629 18.6485 19.0093 18.5199 18.9142 18.4251C18.8191 18.3304 18.6902 18.2773 18.5559 18.2775ZM18.5503 18.3581C18.7884 18.3581 18.9816 18.5456 18.9816 18.7828C18.9799 18.8967 18.9339 19.0054 18.8534 19.0859C18.7729 19.1664 18.6642 19.2124 18.5503 19.2141C18.4371 19.2128 18.329 19.1667 18.2497 19.0859C18.1705 19.005 18.1265 18.896 18.1275 18.7828C18.1275 18.5456 18.3178 18.3581 18.5503 18.3581ZM18.3656 18.4959V19.065H18.4734V18.8381H18.5747C18.6159 18.8381 18.6253 18.855 18.6347 18.8869C18.6347 18.8916 18.6516 19.0397 18.6562 19.0669H18.7734C18.7586 19.0175 18.7494 18.9665 18.7463 18.915C18.7331 18.8419 18.7294 18.7913 18.6516 18.7866C18.6928 18.7725 18.7612 18.7509 18.7612 18.6459C18.7612 18.495 18.63 18.4959 18.5616 18.4959H18.3647H18.3656ZM18.4734 18.5869H18.5653C18.5934 18.5869 18.6478 18.5869 18.6478 18.6638C18.6478 18.6956 18.6338 18.7481 18.5597 18.7463H18.4734V18.5869ZM15.15 19.0519C14.3972 19.0519 13.95 19.3734 13.95 19.9022C13.95 20.4816 14.3981 20.6363 15.1191 20.7084C15.9816 20.7956 16.0491 20.9194 16.0491 21.0881C16.0491 21.3844 15.8109 21.5072 15.2541 21.5072C14.5556 21.5072 14.4028 21.3347 14.3522 20.9878C14.3475 20.9503 14.3147 20.9231 14.2734 20.9231H13.9303C13.9201 20.9231 13.9099 20.9252 13.9005 20.9292C13.891 20.9331 13.8824 20.939 13.8753 20.9463C13.8681 20.9536 13.8625 20.9623 13.8587 20.9719C13.855 20.9814 13.8532 20.9916 13.8534 21.0019C13.8534 21.4444 14.0953 21.9741 15.2494 21.9741C16.0959 21.9741 16.575 21.6459 16.575 21.0703C16.575 20.5003 16.1906 20.3484 15.3787 20.2388C14.5575 20.1291 14.4759 20.0738 14.4759 19.8816C14.4759 19.7222 14.5434 19.5131 15.1509 19.5131C15.6928 19.5131 15.8953 19.6322 15.9778 19.9969C15.9872 20.0344 16.0125 20.0559 16.0491 20.0559H16.3912C16.4137 20.0559 16.4334 20.0466 16.4466 20.0334C16.4606 20.0156 16.4691 19.9978 16.4653 19.9753C16.4109 19.3453 15.9947 19.0519 15.15 19.0519Z" fill="white"/>
</svg>
