<svg width="25" height="26" viewBox="0 0 25 26" fill="none" xmlns="http://www.w3.org/2000/svg">
<path d="M12.1875 0.8125C5.4675 0.8125 0 6.28 0 13C0 19.72 5.4675 25.1875 12.1875 25.1875C18.9075 25.1875 24.375 19.72 24.375 13C24.375 6.28 18.9075 0.8125 12.1875 0.8125ZM12.1875 2.6875C17.8734 2.6875 22.5 7.31406 22.5 13C22.5 18.6859 17.8734 23.3125 12.1875 23.3125C6.50156 23.3125 1.875 18.6859 1.875 13C1.875 7.31406 6.50156 2.6875 12.1875 2.6875ZM7.96875 5.5C6.60168 5.50149 5.29104 6.04521 4.32438 7.01188C3.35771 7.97854 2.81399 9.28918 2.8125 10.6562C2.8125 13.4997 5.12531 15.8125 7.96875 15.8125C9.7125 15.8125 11.2537 14.9387 12.1875 13.6094C12.6616 14.2889 13.2926 14.844 14.0271 15.2275C14.7615 15.6111 15.5777 15.8118 16.4062 15.8125C19.2497 15.8125 21.5625 13.4997 21.5625 10.6562C21.5625 7.81281 19.2497 5.5 16.4062 5.5C14.6625 5.5 13.1213 6.37375 12.1875 7.70313C11.7134 7.0236 11.0824 6.4685 10.3479 6.08495C9.61346 5.70141 8.79731 5.50075 7.96875 5.5ZM7.96875 7.375C9.77812 7.375 11.25 8.84688 11.25 10.6562C11.25 12.4656 9.77812 13.9375 7.96875 13.9375C6.15938 13.9375 4.6875 12.4656 4.6875 10.6562C4.6875 8.84688 6.15938 7.375 7.96875 7.375ZM16.4062 7.375C18.2156 7.375 19.6875 8.84688 19.6875 10.6562C19.6875 12.4656 18.2156 13.9375 16.4062 13.9375C14.5969 13.9375 13.125 12.4656 13.125 10.6562C13.125 8.84688 14.5969 7.375 16.4062 7.375ZM7.96875 9.25C7.59579 9.25 7.2381 9.39816 6.97438 9.66188C6.71066 9.9256 6.5625 10.2833 6.5625 10.6562C6.5625 11.0292 6.71066 11.3869 6.97438 11.6506C7.2381 11.9143 7.59579 12.0625 7.96875 12.0625C8.34171 12.0625 8.6994 11.9143 8.96312 11.6506C9.22684 11.3869 9.375 11.0292 9.375 10.6562C9.375 10.2833 9.22684 9.9256 8.96312 9.66188C8.6994 9.39816 8.34171 9.25 7.96875 9.25ZM16.4062 9.25C16.0333 9.25 15.6756 9.39816 15.4119 9.66188C15.1482 9.9256 15 10.2833 15 10.6562C15 11.0292 15.1482 11.3869 15.4119 11.6506C15.6756 11.9143 16.0333 12.0625 16.4062 12.0625C16.7792 12.0625 17.1369 11.9143 17.4006 11.6506C17.6643 11.3869 17.8125 11.0292 17.8125 10.6562C17.8125 10.2833 17.6643 9.9256 17.4006 9.66188C17.1369 9.39816 16.7792 9.25 16.4062 9.25ZM8.4375 17.6875V19.5625H15.9375V17.6875H8.4375Z" fill="url(#paint0_linear)"/>
<defs>
<linearGradient id="paint0_linear" x1="0" y1="13" x2="24.375" y2="13" gradientUnits="userSpaceOnUse">
<stop stop-color="#F857A6"/>
<stop offset="1" stop-color="#FF5858"/>
</linearGradient>
</defs>
</svg>
