<svg width="30" height="31" viewBox="0 0 30 31" fill="none" xmlns="http://www.w3.org/2000/svg">
<g clip-path="url(#clip0)">
<path fill-rule="evenodd" clip-rule="evenodd" d="M15.9656 2.41063C15.6443 2.3869 15.3222 2.37502 15 2.375V0.5C15.3685 0.50018 15.7369 0.513939 16.1044 0.54125L15.9656 2.41063ZM19.7231 3.25437C19.1221 3.02245 18.5048 2.83506 17.8763 2.69375L18.2869 0.86375C19.005 1.025 19.7119 1.23875 20.3981 1.505L19.7231 3.25437ZM22.2919 4.58562C22.0238 4.40684 21.7492 4.23798 21.4687 4.07938L22.3931 2.44813C23.0342 2.81138 23.6477 3.22123 24.2288 3.67437L23.0756 5.15375C22.8214 4.95543 22.56 4.76655 22.2919 4.5875V4.58562ZM25.7306 7.94187C25.3597 7.41495 24.9505 6.9161 24.5062 6.44938L25.8637 5.15562C26.37 5.69 26.8388 6.26187 27.2644 6.86187L25.7306 7.94187ZM27.1256 10.4769C27.0026 10.1796 26.8687 9.88692 26.7244 9.59938L28.3988 8.75562C28.7299 9.41391 29.0119 10.0958 29.2425 10.7956L27.4613 11.3825C27.3605 11.0766 27.2485 10.7745 27.1256 10.4769ZM28.1194 15.1775C28.1042 14.5331 28.0415 13.8908 27.9319 13.2556L29.7787 12.9369C29.9044 13.6606 29.9775 14.3956 29.9963 15.1306L28.1213 15.1775H28.1194ZM27.8738 18.0613C27.9356 17.7425 27.9862 17.4256 28.0256 17.105L29.8875 17.3356C29.7974 18.0672 29.6533 18.791 29.4563 19.5012L27.6488 19.0006C27.735 18.6912 27.81 18.3781 27.8738 18.0613ZM26.0887 22.5219C26.4337 21.9781 26.7375 21.4081 27 20.8194L28.7137 21.5787C28.4138 22.2537 28.0669 22.9025 27.6731 23.525L26.0887 22.5219ZM24.2812 24.7812C24.51 24.5525 24.7294 24.3162 24.9375 24.0725L26.3587 25.2969C26.1181 25.5759 25.8673 25.8461 25.6069 26.1069L24.2812 24.7812Z" fill="white"/>
<path fill-rule="evenodd" clip-rule="evenodd" d="M15 2.375C12.8416 2.37516 10.7166 2.90759 8.81321 3.92514C6.90977 4.94268 5.28665 6.41394 4.0876 8.20859C2.88856 10.0032 2.15061 12.0659 1.93911 14.2139C1.72761 16.3618 2.04909 18.5288 2.87508 20.5228C3.70107 22.5169 5.00606 24.2765 6.67448 25.6457C8.34291 27.015 10.3233 27.9516 12.4401 28.3728C14.557 28.7939 16.745 28.6864 18.8105 28.06C20.8759 27.4335 22.755 26.3074 24.2812 24.7812L25.6069 26.1069C23.8626 27.8521 21.7148 29.1401 19.3538 29.8569C16.9928 30.5736 14.4914 30.6969 12.0714 30.2159C9.65129 29.7349 7.38723 28.6643 5.47978 27.0992C3.57232 25.534 2.08038 23.5225 1.13612 21.2429C0.191873 18.9633 -0.175528 16.486 0.0664742 14.0305C0.308476 11.575 1.15241 9.21706 2.5235 7.16566C3.89459 5.11426 5.7505 3.43271 7.9268 2.27001C10.1031 1.1073 12.5326 0.499346 15 0.500001V2.375Z" fill="white"/>
<path fill-rule="evenodd" clip-rule="evenodd" d="M14.0625 6.125C14.3111 6.125 14.5496 6.22377 14.7254 6.39959C14.9012 6.5754 15 6.81386 15 7.0625V16.8313L21.09 20.3112C21.2996 20.4377 21.4514 20.6411 21.5131 20.878C21.5747 21.115 21.5412 21.3666 21.4197 21.5791C21.2983 21.7917 21.0985 21.9483 20.8631 22.0155C20.6277 22.0827 20.3754 22.0551 20.16 21.9388L13.5975 18.1888C13.454 18.1068 13.3347 17.9884 13.2518 17.8455C13.1688 17.7025 13.1251 17.5402 13.125 17.375V7.0625C13.125 6.81386 13.2238 6.5754 13.3996 6.39959C13.5754 6.22377 13.8139 6.125 14.0625 6.125Z" fill="white"/>
</g>
<defs>
<clipPath id="clip0">
<rect width="30" height="30" fill="white" transform="translate(0 0.5)"/>
</clipPath>
</defs>
</svg>
