<svg width="30" height="30" viewBox="0 0 30 30" fill="none" xmlns="http://www.w3.org/2000/svg">
<path d="M21.2109 2.84156C20.8982 2.87459 20.5921 2.95356 20.3025 3.07594V3.04688C20.2884 3.05063 20.2584 3.07219 20.2444 3.07594C17.9625 3.87844 13.5938 5.88844 9.63844 9.84375C5.65406 13.8281 3.73219 18.2775 2.87063 20.4788V20.5078C2.68828 21.0595 2.65185 21.6489 2.76488 22.2188C2.87791 22.7888 3.13655 23.3197 3.51563 23.76L3.54469 23.7891V23.8181L6.35719 26.6016L6.47438 26.7188C7.25063 27.495 8.59875 27.495 9.375 26.7188L13.2131 22.8806C13.9894 22.1044 13.9894 20.7272 13.2131 19.9509L11.3672 18.1059C11.6897 17.4356 12.5241 15.7875 14.0044 14.2388C15.4716 12.6994 17.1563 11.9156 17.8125 11.6297L19.7466 13.5638L19.8338 13.6219C20.2734 13.9153 20.775 14.0803 21.2991 14.0616C21.7894 14.0428 22.2984 13.8019 22.6753 13.3875L22.7053 13.4166L22.7634 13.3294L26.5434 9.57938C27.3197 8.80313 27.3197 7.42594 26.5434 6.64969L23.6419 3.75C23.2135 3.32742 22.6754 3.03319 22.0884 2.90063C21.8005 2.83504 21.5041 2.81511 21.21 2.84156H21.2109ZM21.3572 4.71656C21.7134 4.69125 22.0678 4.84125 22.2947 5.06813L25.2244 7.96875C25.3856 8.13 25.3856 8.07188 25.2244 8.23219L21.3 12.1594C21.3038 12.1556 21.3 12.1847 21.2119 12.1884C21.1388 12.1922 21.0291 12.1294 20.9184 12.0713H20.8603L18.6619 9.84375L18.2231 9.40406L17.6663 9.60938C17.6663 9.60938 14.7844 10.6856 12.6272 12.9497C10.5066 15.1688 9.34594 17.8997 9.34594 17.8997L9.11156 18.4866L9.55125 18.9553L11.895 21.2991C12.0553 21.4603 12.0553 21.4022 11.895 21.5625L8.05688 25.4006C7.89563 25.5619 7.95375 25.5619 7.79344 25.4006L4.92188 22.5581C4.91438 22.5516 4.92938 22.5366 4.92188 22.53L4.89281 22.5C4.56656 22.0931 4.46813 21.6609 4.62844 21.1519C4.63219 21.1416 4.62563 21.1341 4.62844 21.1238C5.46 19.0059 7.29094 14.8575 10.9866 11.1619C14.6963 7.45219 18.9038 5.54438 20.9475 4.83375L20.9766 4.80469H21.0056C21.1191 4.75313 21.24 4.72406 21.3572 4.71656Z" fill="white"/>
</svg>
