<svg width="1440" height="1024" viewBox="0 0 1440 1024" fill="none" xmlns="http://www.w3.org/2000/svg">
<g id="undraw_static_assets_rpm6 1" opacity="0.2" clip-path="url(#clip0)">
<path id="Vector" opacity="0.1" d="M1138.93 878.705C1302.13 878.705 1434.42 852.9 1434.42 821.069C1434.42 789.238 1302.13 763.433 1138.93 763.433C975.736 763.433 843.44 789.238 843.44 821.069C843.44 852.9 975.736 878.705 1138.93 878.705Z" fill="#6C63FF"/>
<g id="Group" opacity="0.5">
<path id="Vector_2" opacity="0.5" d="M885.829 145.296C881.844 146.432 876.965 149.392 874.56 157.488C869.849 173.356 880.796 184.145 877.189 200.686C876.188 205.074 874.283 209.203 871.597 212.808C867.193 218.799 862.411 221.633 857.77 225.828C851.882 231.188 847.663 238.14 845.621 245.849C843.383 254.358 843.196 263.279 845.076 271.875C846.725 279.058 849.535 284.292 851.996 290.114C855.055 297.541 857.446 305.227 859.14 313.081C860.07 316.906 860.595 320.819 860.706 324.754C860.636 329.983 860.169 335.199 859.308 340.356L852.611 387.244C851.594 393.375 850.982 399.566 850.78 405.778C850.867 412.003 851.584 418.204 852.919 424.284C855.267 436.686 857.798 449.538 863.18 456.104C868.563 462.67 877.734 460.313 883.368 447.027C888.723 434.315 888.849 417.353 893.574 403.772C901.026 382.376 915.831 379.5 924.051 359.086C931.936 339.444 929.518 315.481 933.516 293.145C936.312 277.136 942.478 262.545 946.098 246.733C951.299 223.962 950.782 200.322 946.63 182.812C943.472 168.425 936.64 155.11 926.805 144.173C923.324 140.315 919.592 136.878 915.216 136.527C910.56 136.162 906.492 142.041 901.892 143.808C896.58 145.899 891.239 143.752 885.829 145.296Z" fill="#6C63FF"/>
<path id="Vector_3" opacity="0.5" d="M911.036 137.719C911.036 137.719 903.151 340.23 869.989 459.64" stroke="#535461" stroke-width="2" stroke-miterlimit="10"/>
<path id="Vector_4" opacity="0.5" d="M874.365 158.442C874.365 158.442 909.805 190.823 903.081 252.443" stroke="#535461" stroke-width="2" stroke-miterlimit="10"/>
<path id="Vector_5" opacity="0.5" d="M844.628 250.591C844.628 250.591 902.801 262.335 898.481 297.255" stroke="#535461" stroke-width="2" stroke-miterlimit="10"/>
<path id="Vector_6" opacity="0.5" d="M946.727 182.391C946.727 182.391 923.184 203.071 902.214 261.647" stroke="#535461" stroke-width="2" stroke-miterlimit="10"/>
<path id="Vector_7" opacity="0.5" d="M923.73 359.423C923.73 359.423 907.667 372.05 894.777 327.841" stroke="#535461" stroke-width="2" stroke-miterlimit="10"/>
<path id="Vector_8" opacity="0.5" d="M854.415 385.252C854.415 385.252 887.171 380.959 890.191 360.377" stroke="#535461" stroke-width="2" stroke-miterlimit="10"/>
</g>
<path id="Vector_9" d="M965.014 9.46929C956.905 10.6759 947.147 14.45 943.135 26.0809C935.264 48.8938 959.184 66.1649 953.676 90.002C952.032 96.5619 948.572 102.521 943.694 107.189C935.306 115.481 925.715 119.1 916.628 124.726C907.541 130.353 898.104 139.206 893.84 152.787C889.743 165.849 891.519 180.272 895.783 191.047C900.047 201.822 906.492 209.861 912.252 218.728C919.252 229.642 925.103 241.256 929.713 253.382C932.039 258.91 933.6 264.73 934.355 270.681C935.096 277.977 934.159 285.82 933.223 293.494L924.904 361.877C923.8 370.969 922.681 380.2 923.31 388.955C924.023 399.043 927.001 407.854 929.937 416.454C936.256 435.002 943.023 454.335 954.948 464.549C966.873 474.763 985.579 472.574 995.659 453.578C1005.25 435.493 1003.49 410.533 1011.67 391.102C1024.56 360.474 1054.87 357.991 1069.45 328.92C1083.43 301.029 1075.61 265.35 1081.23 232.941C1085.26 209.721 1096.16 188.956 1101.76 166.101C1109.82 133.173 1105.95 98.3078 1095.3 72.0996C1084.64 45.8914 1067.8 27.2033 1049.72 12.8505C1042.06 6.74746 1033.94 1.23363 1024.84 0.223467C1015.16 -0.85685 1007.43 7.30866 998.134 9.37108C987.313 11.6299 976.017 7.82777 965.014 9.46929Z" fill="#6C63FF"/>
<path id="Vector_10" d="M1016.29 1.30481C1016.29 1.30481 1023.93 298.588 969.376 470.499" stroke="#535461" stroke-width="2" stroke-miterlimit="10"/>
<path id="Vector_11" d="M942.827 27.513C942.827 27.513 1020 79.4243 1013.39 169.441" stroke="#535461" stroke-width="2" stroke-miterlimit="10"/>
<path id="Vector_12" d="M892.176 159.634C892.176 159.634 1013.97 183.85 1009.16 234.751" stroke="#535461" stroke-width="2" stroke-miterlimit="10"/>
<path id="Vector_13" d="M1095.44 71.343C1095.44 71.343 1049.15 98.9963 1012.69 182.756" stroke="#535461" stroke-width="2" stroke-miterlimit="10"/>
<path id="Vector_14" d="M1068.72 329.314C1068.72 329.314 1036.99 346.15 1005.07 279.353" stroke="#535461" stroke-width="2" stroke-miterlimit="10"/>
<path id="Vector_15" d="M928.316 359.072C928.316 359.072 995.604 356.645 999.434 326.691" stroke="#535461" stroke-width="2" stroke-miterlimit="10"/>
<path id="Vector_16" d="M94.0187 811.767C94.0187 811.767 105.734 827.2 88.6083 850.35C71.4822 873.499 57.334 893.169 63.08 907.648C63.08 907.648 88.9159 864.534 109.942 863.931C130.969 863.327 117.156 837.694 94.0187 811.767Z" fill="#6C63FF"/>
<path id="Vector_17" opacity="0.1" d="M94.0186 811.767C95.064 813.25 95.8926 814.875 96.4791 816.593C117.002 840.781 127.921 863.356 108.209 863.931C89.8384 864.464 67.8053 897.421 62.5207 905.754C62.695 906.397 62.9051 907.029 63.1498 907.648C63.1498 907.648 88.9856 864.534 110.012 863.931C131.039 863.327 117.156 837.694 94.0186 811.767Z" fill="black"/>
<path id="Vector_18" d="M115.8 831.367C115.8 836.783 115.199 841.188 114.402 841.188C113.605 841.188 113.004 836.797 113.004 831.367C113.004 825.937 113.759 828.561 114.5 828.561C115.241 828.561 115.8 825.951 115.8 831.367Z" fill="#FFD037"/>
<path id="Vector_19" d="M123.279 837.821C118.54 840.416 114.416 842.03 114.066 841.314C113.717 840.599 117.254 838.017 121.993 835.436C126.732 832.854 124.859 834.734 125.223 835.436C125.586 836.137 128.005 835.225 123.279 837.821Z" fill="#FFD037"/>
<path id="Vector_20" d="M32.1689 811.767C32.1689 811.767 20.4533 827.2 37.5794 850.35C54.7054 873.499 68.8257 893.155 63.1077 907.634C63.1077 907.634 37.2718 864.52 16.2452 863.917C-4.78138 863.313 9.00334 837.694 32.1689 811.767Z" fill="#6C63FF"/>
<path id="Vector_21" opacity="0.1" d="M32.1689 811.767C31.148 813.254 30.3431 814.879 29.7783 816.593C9.25499 840.781 -1.66374 863.356 18.0487 863.931C36.419 864.464 58.4522 897.421 63.7368 905.754C63.5624 906.397 63.3524 907.029 63.1077 907.648C63.1077 907.648 37.2718 864.534 16.2452 863.931C-4.78138 863.327 9.00334 837.694 32.1689 811.767Z" fill="black"/>
<path id="Vector_22" d="M10.3596 831.367C10.3596 836.783 10.9607 841.188 11.7576 841.188C12.5545 841.188 13.1557 836.797 13.1557 831.367C13.1557 825.937 12.4007 828.561 11.6598 828.561C10.9188 828.561 10.3596 825.951 10.3596 831.367Z" fill="#FFD037"/>
<path id="Vector_23" d="M2.87993 837.821C7.6193 840.416 11.7435 842.03 12.093 841.314C12.4425 840.599 8.9055 838.017 4.16613 835.436C-0.573245 832.854 1.30014 834.734 0.936647 835.436C0.573155 836.137 -1.84546 835.225 2.87993 837.821Z" fill="#FFD037"/>
<path id="Vector_24" d="M14.0922 905.628C14.0922 905.628 46.8484 904.618 56.7186 897.561C66.5888 890.504 107.048 882.128 109.551 893.352C112.053 904.576 158.776 949.626 121.798 949.921C84.8193 950.216 35.8738 944.141 26.0176 938.122C16.1613 932.103 14.0922 905.628 14.0922 905.628Z" fill="#A8A8A8"/>
<path id="Vector_25" opacity="0.2" d="M122.455 946.021C85.4764 946.315 36.5309 940.24 26.6746 934.221C19.1671 929.633 16.1753 913.176 15.1827 905.586H14.0922C14.0922 905.586 16.1613 932.103 26.0176 938.122C35.8738 944.141 84.8193 950.23 121.798 949.921C132.479 949.837 136.156 946.021 135.96 940.381C134.478 943.832 130.41 945.964 122.455 946.021Z" fill="black"/>
<path id="Vector_26" d="M1373.38 805.383C1375.95 803.287 1377.81 800.459 1378.74 797.274C1379.44 794.047 1378.07 790.189 1374.99 789.01C1371.55 787.691 1367.88 790.076 1365.09 792.504C1362.31 794.931 1359.11 797.681 1355.46 797.162C1357.34 795.456 1358.74 793.291 1359.53 790.879C1360.33 788.467 1360.48 785.89 1359.99 783.398C1359.83 782.365 1359.4 781.395 1358.73 780.592C1356.82 778.544 1353.36 779.428 1351.07 781.041C1343.8 786.176 1341.77 796.081 1341.73 805.005C1341 801.792 1341.62 798.438 1341.59 795.183C1341.56 791.928 1340.67 788.168 1337.9 786.457C1336.18 785.531 1334.26 785.072 1332.31 785.124C1329.04 784.998 1325.4 785.334 1323.17 787.733C1320.37 790.708 1321.11 795.717 1323.53 798.958C1325.95 802.199 1329.61 804.289 1332.99 806.562C1335.71 808.18 1338.02 810.39 1339.76 813.03C1339.97 813.396 1340.13 813.781 1340.26 814.18H1360.75C1365.33 811.834 1369.59 808.874 1373.38 805.383Z" fill="#6C63FF"/>
<path id="Vector_27" opacity="0.1" d="M205.135 673.893C249.621 730.659 232.341 813.591 204.073 879.995C194.608 902.233 183.899 925.762 187.897 949.599C192.776 978.753 218.654 1000.11 245.944 1011.33C295.575 1031.93 354.991 1027.02 400.582 998.55C439.993 973.941 468.219 933.927 508.301 910.441C575.407 871.156 660.772 885.986 733.61 913.05C785.142 932.201 841.483 957.119 892.693 937.098C928.721 923.068 953.634 888.736 967.209 852.398C973.766 834.846 978.519 815.92 990.976 801.89C998.414 793.626 1008.12 787.748 1018.07 782.809C1108.94 737.618 1223.58 761.764 1311.77 711.704C1371.34 677.864 1409.48 614.013 1426.41 547.44C1443.34 480.867 1441.33 411.054 1437.04 342.503C1433.99 293.776 1428.52 241.767 1397.5 204.152C1364.69 164.377 1308.36 149.575 1257.46 157.137C1206.55 164.699 1160.39 191.777 1119.85 223.513C1069.11 263.177 1022.07 312.576 959.772 328.655C917.355 339.598 872.729 333.608 828.971 331.545C755.825 328.08 682.665 335.754 609.925 344.172C540.288 352.254 470.12 361.149 403.811 383.877C356.865 399.97 319.229 429.166 274.897 449.566C246 462.867 214.488 466.543 187.142 483.477C153.435 504.34 122.553 540.636 131.22 583.091C139.357 623.511 181.508 643.771 205.135 673.893Z" fill="#6C63FF"/>
<path id="Vector_28" opacity="0.1" d="M772.21 673.865C1102.42 673.865 1370.11 648.061 1370.11 616.23C1370.11 584.398 1102.42 558.594 772.21 558.594C441.998 558.594 174.308 584.398 174.308 616.23C174.308 648.061 441.998 673.865 772.21 673.865Z" fill="#6C63FF"/>
<path id="Vector_29" opacity="0.1" d="M312.687 1006.38C475.882 1006.38 608.177 980.574 608.177 948.743C608.177 916.911 475.882 891.107 312.687 891.107C149.492 891.107 17.1958 916.911 17.1958 948.743C17.1958 980.574 149.492 1006.38 312.687 1006.38Z" fill="#6C63FF"/>
<path id="Vector_30" d="M614.748 598.257L610.065 605.09C610.065 605.09 615.168 611.922 615.657 612.778C616.146 613.634 630.546 612.357 630.546 612.357L631.818 607.236L629.693 601.26L614.748 598.257Z" fill="#E6E6F0"/>
<path id="Vector_31" d="M457.287 594.413L447.92 596.11L453.875 607.657L460.265 611.067L466.22 615.332L467.926 610.646L463.662 601.666L457.287 594.413Z" fill="#FDC2CC"/>
<path id="Vector_32" d="M610.498 483.365C610.498 483.365 660.296 495.318 669.649 508.619C669.649 508.619 678.163 515.886 669.649 529.117C661.135 542.347 649.224 572.259 649.224 572.259C649.224 572.259 640.71 601.301 637.312 603.434C633.915 605.567 614.329 607.278 612.623 599.225C612.623 599.225 623.681 581.715 623.681 573.592C623.681 565.469 641.982 527.04 641.982 527.04C641.982 527.04 600.278 522.34 587.081 525.329C573.883 528.317 593.05 478.665 610.498 483.365Z" fill="#565171"/>
<path id="Vector_33" opacity="0.1" d="M610.498 483.365C610.498 483.365 660.296 495.318 669.649 508.619C669.649 508.619 678.163 515.886 669.649 529.117C661.135 542.347 649.224 572.259 649.224 572.259C649.224 572.259 640.71 601.301 637.312 603.434C633.915 605.567 614.329 607.278 612.623 599.225C612.623 599.225 623.681 581.715 623.681 573.592C623.681 565.469 641.982 527.04 641.982 527.04C641.982 527.04 600.278 522.34 587.081 525.329C573.883 528.317 593.05 478.665 610.498 483.365Z" fill="black"/>
<path id="Vector_34" d="M600.278 494.897C600.18 497.381 599.915 500.173 599.537 503.175C596.811 524.922 587.934 557.261 587.934 557.261C587.934 557.261 579 576.482 576.442 588.871C573.883 601.26 556.436 604.304 556.436 604.304C556.436 604.304 508.762 609.916 498.976 607.727C489.19 605.539 473.811 614.139 466.206 612.848C458.6 611.558 453.861 593.627 453.861 593.627C467.061 593.705 480.124 590.94 492.167 585.518C511.74 576.553 539.841 580.818 539.841 580.818C541.937 580.207 543.886 579.173 545.569 577.778C547.252 576.383 548.633 574.658 549.627 572.708C552.605 566.297 552.605 527.433 551.752 524.866C546.16 508.03 546.621 497.226 548.229 490.927C548.767 488.175 549.978 485.601 551.752 483.435L600.278 494.897Z" fill="#565171"/>
<path id="Vector_35" opacity="0.1" d="M600.278 494.897C600.181 497.381 599.915 500.173 599.537 503.175C595.259 503.512 583.264 503.834 574.373 498.321C565.984 493.157 553.779 491.404 548.285 490.857C548.823 488.105 550.034 485.531 551.808 483.365L600.278 494.897Z" fill="black"/>
<path id="Vector_36" d="M606.164 489.552C604.179 495.164 601.131 501.744 601.131 501.744C601.131 501.744 585.389 503.877 574.317 497.044C563.244 490.211 545.377 489.355 545.377 489.355C548.271 487.574 550.229 482.158 551.445 477.416C552.124 474.735 552.656 472.018 553.039 469.278C553.039 469.278 605.381 479.955 607.562 481.667C608.373 482.34 607.506 485.736 606.164 489.552Z" fill="#E6E6F0"/>
<path id="Vector_37" d="M699.442 309.532L635.957 347.988L629.652 351.804V333.018L634.027 330.914L687.531 305.253C687.531 305.253 690.089 258.701 696.898 265.968C703.706 273.236 699.442 309.532 699.442 309.532Z" fill="#FDC2CC"/>
<path id="Vector_38" opacity="0.1" d="M635.957 347.988L629.652 351.804V333.018L634.027 330.914C634.317 336.64 634.961 342.342 635.957 347.988Z" fill="black"/>
<path id="Vector_39" d="M587.095 354.863L632.629 328.388C632.629 328.388 633.482 354.021 638.585 357.851C638.585 357.851 619.865 363.463 612.623 375.361L587.095 354.863Z" fill="#B45181"/>
<path id="Vector_40" opacity="0.1" d="M587.095 354.863L632.629 328.388C632.629 328.388 633.482 354.021 638.585 357.851C638.585 357.851 619.865 363.463 612.623 375.361L587.095 354.863Z" fill="black"/>
<path id="Vector_41" d="M699.036 377.437C699.036 377.437 677.381 386.908 663.037 390.387C659.809 391.364 656.433 391.754 653.069 391.538C643.283 389.826 655.627 377.508 655.627 377.508L660.772 376.708L688.397 372.387C688.397 372.387 691.375 329.679 696.478 333.102C701.581 336.526 699.036 377.437 699.036 377.437Z" fill="#FDC2CC"/>
<path id="Vector_42" d="M607.52 338.995C607.52 338.995 589.22 352.66 596.029 369.749C602.837 386.838 560.7 359.493 560.7 359.493C560.7 359.493 574.317 338.995 577.295 323.618C580.273 308.241 607.52 338.995 607.52 338.995Z" fill="#FDC2CC"/>
<path id="Vector_43" opacity="0.1" d="M606.164 489.552C598.249 486.56 589.976 484.626 581.559 483.799C569.256 482.396 557.988 480.025 551.459 477.416C552.138 474.735 552.67 472.018 553.052 469.278C553.052 469.278 605.395 479.955 607.576 481.667C608.373 482.34 607.506 485.736 606.164 489.552Z" fill="black"/>
<path id="Vector_44" opacity="0.1" d="M663.023 390.387C659.795 391.364 656.419 391.754 653.054 391.538C643.268 389.826 655.613 377.508 655.613 377.508L660.758 376.708C662.911 380.033 665.106 385.224 663.023 390.387Z" fill="black"/>
<path id="Vector_45" d="M577.728 346.683C577.728 346.683 561.133 346.263 555.177 353.095C549.222 359.928 550.494 378.349 550.494 378.349C550.494 378.349 549.25 415.234 558.575 435.873C558.882 436.539 558.917 437.299 558.673 437.991C558.575 438.244 558.575 438.089 558.575 438.089C558.575 438.089 552.619 464.999 546.663 469.699C540.708 474.399 559.427 479.955 581.614 482.509C603.801 485.062 612.679 491.474 612.679 491.474C612.679 491.474 616.51 487.265 616.873 477.809C617.237 468.352 610.959 399.647 610.959 399.647C610.959 399.647 634.363 405.624 648.413 398.37C648.413 398.37 654.802 401.794 660.758 392.393C666.713 382.993 656.564 372.751 656.564 372.751C656.564 372.751 647.197 382.151 621.235 369.763C595.273 357.374 585.795 346.263 577.728 346.683Z" fill="#B45181"/>
<path id="Vector_46" d="M450.478 595.269H445.375V602.536L450.478 614.069C450.478 614.069 457.286 615.346 457.72 615.346C458.153 615.346 463.675 614.069 463.675 614.069L465.381 611.08C465.381 611.08 446.647 603.799 450.478 595.269Z" fill="#E6E6F0"/>
<path id="Vector_47" d="M610.498 602.101L602.837 619.19L635.188 634.623L660.73 635.479C660.73 635.479 662.855 629.502 654.341 626.514L647.532 625.237C647.532 625.237 638.599 609.004 637.746 601.386C637.746 601.386 629.232 603.097 627.96 609.495C627.946 609.355 616.034 615.332 610.498 602.101Z" fill="#B45181"/>
<path id="Vector_48" d="M446.647 593.557L444.047 595.69L432.611 605.09L458.992 640.165C458.992 640.165 473.881 646.577 480.704 640.165C480.704 640.165 484.898 635.956 475.601 632.476C475.601 632.476 468.359 633.753 468.359 626.5C468.359 619.246 470.064 611.558 472.553 609.846C472.553 609.846 466.164 607.713 464.472 609.425C463.171 610.864 462.027 612.44 461.061 614.125C461.061 614.125 445.794 608.078 446.647 593.557Z" fill="#B45181"/>
<path id="Vector_49" opacity="0.1" d="M576.456 324.474C576.024 326.641 575.454 328.778 574.75 330.872C576.961 336.208 581.158 340.47 586.449 342.752C591.74 345.034 597.709 345.156 603.089 343.092C604.211 341.93 605.412 340.847 606.682 339.851C606.682 339.851 579.434 309.097 576.456 324.474Z" fill="black"/>
<path id="Vector_50" opacity="0.1" d="M574.107 381.52C574.107 381.52 587.304 399.03 606.458 399.465L574.107 381.52Z" fill="black"/>
<g id="Group_2" opacity="0.1">
<path id="Vector_51" opacity="0.1" d="M652.985 398.665C652.716 398.59 652.454 398.491 652.202 398.37C651.792 398.585 651.372 398.787 650.944 398.974C651.635 398.96 652.321 398.856 652.985 398.665Z" fill="black"/>
<path id="Vector_52" opacity="0.1" d="M657.514 374.505C657.051 373.908 656.557 373.337 656.032 372.793C656.032 372.793 653.236 375.599 646.33 376.133C650.135 376.512 653.974 375.953 657.514 374.505Z" fill="black"/>
<path id="Vector_53" opacity="0.1" d="M614.748 399.647L614.832 400.559C620.447 401.603 626.152 402.073 631.86 401.962C626.095 401.751 620.364 400.976 614.748 399.647Z" fill="black"/>
<path id="Vector_54" opacity="0.1" d="M585.389 482.537C563.258 479.969 544.538 474.427 550.438 469.727C556.338 465.027 562.35 438.118 562.35 438.118C562.35 438.118 562.349 438.272 562.447 438.019C562.692 437.328 562.657 436.567 562.35 435.901C553.025 415.206 554.269 378.378 554.269 378.378C554.269 378.378 552.997 360.012 558.952 353.123C563.384 348.03 573.716 346.978 578.707 346.768C578.241 346.732 577.774 346.732 577.309 346.768C577.309 346.768 560.714 346.347 554.758 353.179C548.802 360.012 550.075 378.434 550.075 378.434C550.075 378.434 548.83 415.319 558.155 435.957C558.463 436.623 558.498 437.384 558.253 438.076C558.155 438.328 558.155 438.174 558.155 438.174C558.155 438.174 552.242 464.999 546.23 469.699C540.218 474.399 558.994 479.955 581.181 482.509C603.368 485.062 612.246 491.474 612.246 491.474C612.691 490.938 613.084 490.36 613.42 489.748C609.1 487.658 600.209 484.22 585.389 482.537Z" fill="black"/>
</g>
<path id="Vector_55" d="M596.028 343.695C608.251 343.695 618.159 333.752 618.159 321.486C618.159 309.219 608.251 299.276 596.028 299.276C583.806 299.276 573.897 309.219 573.897 321.486C573.897 333.752 583.806 343.695 596.028 343.695Z" fill="#FDC2CC"/>
<path id="Vector_56" opacity="0.1" d="M627.526 311.552C625.695 316.154 620.228 317.894 615.433 319.086C608.583 320.77 601.201 322.425 594.644 319.816C593.795 319.337 592.814 319.146 591.848 319.269C591.069 319.582 590.419 320.151 590.003 320.882C582.775 331.208 583.949 344.972 582.076 357.459C581.489 361.345 580.496 365.358 577.882 368.262C572.793 373.874 563.188 373.663 558.505 379.626C555.415 383.555 555.387 389.012 555.415 394.021C555.415 399.362 555.368 404.707 555.275 410.057C555.191 413.565 555.024 417.199 553.444 420.313C550.759 425.589 544.776 428.1 539.254 430.134C535.814 431.425 532.263 432.73 528.573 432.379C524.882 432.029 521.191 429.573 520.716 425.869C520.058 420.847 525.217 417.339 528.768 413.719C534.444 407.953 536.779 399.563 536.989 391.454C537.188 388.178 536.712 384.897 535.591 381.815C534.291 378.63 531.97 375.95 530.572 372.808C526.266 363.127 531.578 351.931 537.939 343.457C544.301 334.982 552.116 326.719 553.472 316.21C553.59 313.936 553.913 311.677 554.436 309.462C555.415 306.403 557.736 297.957 560.294 296.021C564.39 292.924 569.199 290.917 574.275 290.184C578.203 289.609 582.216 289.82 586.116 289.062C590.674 288.178 594.91 286.003 599.467 285.19C609.324 283.436 620.019 294.927 624.339 303.99C625.527 306.768 628.645 308.732 627.526 311.552Z" fill="black"/>
<path id="Vector_57" d="M627.526 310.696C625.695 315.298 620.228 317.038 615.433 318.23C608.583 319.914 601.201 321.57 594.644 318.96C593.795 318.482 592.814 318.29 591.848 318.413C591.069 318.726 590.419 319.295 590.003 320.026C582.775 330.352 583.949 344.116 582.076 356.603C581.489 360.489 580.496 364.502 577.882 367.406C572.793 373.018 563.188 372.808 558.505 378.77C555.415 382.699 555.387 388.156 555.415 393.165C555.415 398.506 555.368 403.851 555.275 409.202C555.191 412.709 555.024 416.343 553.444 419.458C550.759 424.733 544.776 427.244 539.254 429.279C535.814 430.569 532.263 431.874 528.573 431.523C524.882 431.173 521.191 428.717 520.716 425.013C520.058 419.991 525.217 416.483 528.768 412.863C534.444 407.097 536.779 398.707 536.989 390.598C537.188 387.322 536.712 384.041 535.591 380.959C534.291 377.774 531.97 375.094 530.572 371.952C526.266 362.271 531.578 351.075 537.939 342.601C544.301 334.127 552.116 325.863 553.472 315.354C553.59 313.08 553.913 310.822 554.436 308.606C555.415 305.547 557.736 297.101 560.294 295.165C564.39 292.069 569.199 290.061 574.275 289.328C578.203 288.753 582.216 288.964 586.116 288.206C590.674 287.322 594.91 285.148 599.467 284.334C609.324 282.58 620.019 294.071 624.339 303.134C625.527 305.912 628.645 307.876 627.526 310.696Z" fill="#F569BC"/>
<path id="Vector_58" d="M699.036 268.003H1066.96V637.204H699.036V268.003Z" fill="#F7DF1E"/>
<path id="Vector_59" d="M795.795 576.538L823.952 559.436C829.39 569.102 834.325 577.282 846.181 577.282C857.547 577.282 864.705 572.82 864.705 555.479V437.5H899.278V555.956C899.278 591.887 878.308 608.246 847.663 608.246C820.009 608.246 803.96 593.866 795.809 576.524L795.795 576.538ZM918.054 572.806L946.197 556.447C953.606 568.597 963.239 577.492 980.281 577.492C994.611 577.492 1003.74 570.309 1003.74 560.39C1003.74 548.492 994.359 544.283 978.575 537.338L969.936 533.62C944.994 522.972 928.442 509.587 928.442 481.33C928.442 455.304 948.196 435.48 979.065 435.48C1001.04 435.48 1016.81 443.168 1028.21 463.231L1001.29 480.587C995.366 469.924 988.949 465.715 979.065 465.715C968.943 465.715 962.512 472.154 962.512 480.587C962.512 490.997 968.929 495.206 983.748 501.632L992.388 505.35C1021.75 517.977 1038.33 530.87 1038.33 559.871C1038.33 591.102 1013.88 608.204 981.008 608.204C948.853 608.204 928.162 592.771 918.096 572.764" fill="black"/>
<path id="Vector_60" d="M1228.35 842.1C1228.35 842.1 1213.99 843.11 1205.13 827.677C1203.4 824.57 1201.35 821.65 1199.02 818.964C1196.16 814.256 1194.67 808.836 1194.73 803.321C1195.22 791.886 1183.33 729.256 1183.33 729.256C1183.33 729.256 1184.82 705.405 1172.93 690.491C1165.1 680.67 1153.85 652.61 1147.07 634.483C1147.52 634.89 1148.07 635.179 1148.66 635.324L1148.38 633.767H1148.66L1145.15 614.42C1140.04 608.526 1135.74 601.977 1132.35 594.946L1133.14 594.777L1143.66 592.561C1143.66 592.561 1160.74 568.19 1161.83 556.209H1163.23H1165.2C1181.01 556.122 1196.82 556.951 1212.54 558.692C1212.54 558.622 1212.43 558.313 1212.29 557.822C1211.62 555.411 1211.11 552.96 1210.75 550.484H1211.73L1221.51 549.839C1221.51 549.839 1255.19 512.07 1242.81 505.111C1230.42 498.152 1217.54 536.426 1217.54 536.426L1213.35 537.184L1212.22 537.394C1212.33 537.226 1212.44 537.072 1212.57 536.917C1212.69 536.763 1157.6 534.448 1149.11 521.007C1149.11 521.007 1124.84 501.618 1123.85 488.738C1123.67 486.066 1122.76 483.495 1121.22 481.307C1119.68 479.119 1117.57 477.399 1115.12 476.335C1112.12 474.899 1108.8 474.275 1105.49 474.526L1094.12 475.311L1094.92 476.714H1094.6C1093.89 475.075 1093.29 473.387 1092.81 471.663H1093.05C1092.96 471.313 1092.89 470.962 1092.82 470.611C1096.31 469.787 1099.59 468.269 1102.48 466.148C1105.37 464.027 1107.8 461.346 1109.64 458.264C1111.47 455.182 1112.68 451.761 1113.17 448.204C1113.67 444.647 1113.45 441.026 1112.52 437.556C1113.63 437.7 1114.76 437.666 1115.86 437.458C1120.06 436.602 1123.01 432.337 1123.12 428.072C1123.12 427.791 1123.12 427.511 1123.12 427.244C1123.12 427.244 1123.12 427.132 1123.12 427.076C1123.08 424.933 1122.56 422.826 1121.6 420.908C1120.65 418.991 1119.28 417.312 1117.6 415.992C1115.33 414.098 1112.62 412.751 1110.61 410.647C1108.16 408.135 1106.82 404.768 1104.92 401.808C1101.73 396.911 1097.01 393.222 1091.5 391.327C1087.4 389.924 1082.37 389.784 1079.22 392.73C1077.6 394.259 1076.66 396.476 1074.84 397.767C1072.23 399.647 1068.68 399.086 1065.48 399.465C1062.58 399.912 1059.83 401.069 1057.49 402.833C1055.14 404.597 1053.26 406.915 1052.01 409.58C1050.45 412.918 1049.69 416.582 1049.81 420.271C1049.77 422.802 1050.07 425.326 1050.7 427.777C1051.32 430.219 1052.22 432.576 1052.9 435.017C1054.29 440.068 1054.62 445.385 1056.22 450.366C1057.3 454.062 1059.46 457.351 1062.42 459.808L1061.94 461.856C1061.63 461.856 1053.92 463.582 1048.59 475.269C1044.4 484.487 1030.12 493.999 1023.84 497.844C1022.67 498.562 1021.66 499.509 1020.86 500.626C1020.05 501.744 1019.48 503.011 1019.17 504.354C1018.57 507.065 1018.3 509.84 1018.38 512.617C1018.27 518.608 1019.51 526.9 1024.31 537.408C1035.2 561.26 1043.12 571.698 1043.12 571.698C1043.12 571.698 1043.72 579.008 1043.77 586.71C1043.77 592.449 1043.35 598.159 1042.13 601.021C1041.1 603.434 1040.73 609.593 1040.82 616.636C1040.82 630.133 1042.13 647.741 1042.13 647.741C1042.13 647.741 1045.92 648.471 1051.78 649.327L1055.43 713.753C1055.88 721.555 1053.39 729.243 1048.44 735.275C1045.88 738.448 1042.92 741.277 1039.64 743.693C1029.24 751.143 1006.96 829.683 1006.96 829.683C1006.96 829.683 1008.05 829.683 1009.84 829.894L1002.99 849.073C1002.99 849.073 1030.36 870.118 1047.01 864.366C1048.81 863.776 1050.71 863.51 1052.6 863.58C1055.89 863.58 1062.92 860.97 1059 857.533C1051.45 850.547 1044.32 843.107 1037.66 835.253C1038.19 835.516 1038.71 835.821 1039.19 836.165V836.011L1039.43 836.165C1039.43 836.165 1039.43 835.394 1039.61 834.131L1039.38 834.047C1039.88 828.884 1041.47 815.808 1044.63 814.292C1048.59 812.3 1077.82 754.145 1077.82 754.145L1107.04 678.593C1107.04 678.593 1130.32 718.86 1150.13 725.805V742.641C1150.13 742.641 1161.02 792.349 1164.99 797.807C1168.96 803.265 1164.99 825.138 1164.99 825.138C1165.77 826.037 1166.67 826.83 1167.66 827.495L1164.49 845.509C1164.49 845.509 1187.28 844.513 1225.9 856.439C1225.88 856.509 1240.74 850.055 1228.35 842.1ZM1137.23 582.15L1132.4 583.357L1131.45 583.596C1131.35 582.992 1131.28 582.641 1131.28 582.641C1130.18 583.143 1128.99 583.433 1127.77 583.497C1126.07 578.063 1125.08 572.425 1124.84 566.731C1123.22 559.917 1122.23 552.965 1121.89 545.967C1121.89 542.347 1122.49 539.19 1123.85 537.408L1125.45 537.535L1126.57 538.601L1126.66 538.671L1127.23 539.19L1127.83 539.723L1127.93 539.808L1128.57 540.383L1128.68 540.481L1129.34 541.042L1130.08 541.66L1130.25 541.8L1131.03 542.431L1131.8 543.049L1131.98 543.189L1132.84 543.834L1133.02 543.961L1133.83 544.564L1133.97 544.662L1134.89 545.321L1135.11 545.476L1136.09 546.149H1136.18L1137.13 546.781L1137.35 546.935L1138.37 547.594L1138.6 547.735L1139.55 548.324L1139.73 548.436L1140.82 549.081L1141.08 549.236L1142.22 549.867H1142.3L1143.4 550.456L1143.67 550.597L1144.84 551.186L1145.08 551.298L1146.17 551.803L1146.38 551.902L1147.61 552.435L1147.91 552.561L1149.18 553.08C1141.28 561.807 1137.23 582.15 1137.23 582.15Z" fill="url(#paint0_linear)"/>
<path id="Vector_61" d="M1015.06 818.08L1005.88 843.797C1005.88 843.797 1031.04 863.159 1047.4 859.146C1049.87 858.531 1052.38 858.123 1054.91 857.926C1058.29 857.673 1064.12 855.19 1060.5 852.047C1048.9 841.861 1033.42 822.935 1033.42 822.935L1015.06 818.08Z" fill="#4F4D59"/>
<path id="Vector_62" d="M1167.86 815.653L1163.51 840.402C1163.51 840.402 1185.75 839.434 1223.47 851.079C1223.47 851.079 1237.98 844.766 1225.89 837.049C1225.89 837.049 1211.91 838.017 1203.17 823.019C1194.43 808.021 1189.19 809.915 1189.19 809.915L1167.86 815.653Z" fill="#4F4D59"/>
<path id="Vector_63" d="M1052.74 636.124L1056.94 711.438C1057.4 719.463 1054.75 727.355 1049.54 733.465C1047.19 736.27 1044.51 738.781 1041.56 740.943C1031.41 748.225 1009.64 824.885 1009.64 824.885C1009.64 824.885 1034.3 826.288 1041.07 831.199C1041.07 831.199 1042.47 811.795 1046.38 809.845C1050.3 807.895 1078.77 751.129 1078.77 751.129L1107.31 677.373C1107.31 677.373 1130.03 716.657 1149.37 723.475V739.975C1149.37 739.975 1160.01 788.505 1163.89 793.836C1167.76 799.168 1163.89 820.494 1163.89 820.494C1163.89 820.494 1175.07 834.524 1200.63 819.526C1200.63 819.526 1192.41 810.308 1192.9 799.14C1193.39 787.972 1181.71 726.843 1181.71 726.843C1181.71 726.843 1183.11 703.553 1171.56 688.962C1160.01 674.37 1140.82 618.629 1140.82 618.629L1127.51 589.895L1052.74 636.124Z" fill="#C48C96"/>
<g id="Group_3" opacity="0.1">
<path id="Vector_64" opacity="0.1" d="M1014.34 824.871C1014.34 824.871 1036.09 748.211 1046.25 740.929C1049.37 738.636 1052.19 735.958 1054.64 732.96C1059.61 726.933 1062.1 719.241 1061.63 711.438L1057.37 636.11L1128.67 592L1127.71 589.909L1053.02 636.124L1057.29 711.452C1057.76 719.255 1055.26 726.947 1050.3 732.974C1047.84 735.972 1045.02 738.65 1041.91 740.943C1031.77 748.211 1009.99 824.871 1009.99 824.871C1009.99 824.871 1034.65 826.274 1041.42 831.185C1041.42 831.185 1041.42 830.427 1041.6 829.206C1032.08 825.923 1014.34 824.871 1014.34 824.871Z" fill="black"/>
<path id="Vector_65" opacity="0.1" d="M1168.58 820.508C1168.58 820.508 1172.46 799.154 1168.58 793.85C1164.71 788.547 1154.07 739.989 1154.07 739.989V723.461C1134.74 716.671 1112 677.359 1112 677.359L1110.33 681.764C1116.88 692.202 1134.37 718.102 1149.74 723.49V739.989C1149.74 739.989 1160.38 788.519 1164.25 793.85C1168.12 799.182 1164.25 820.508 1164.25 820.508C1164.25 820.508 1169.65 827.326 1181.56 826.4C1172.65 825.657 1168.58 820.508 1168.58 820.508Z" fill="black"/>
</g>
<path id="Vector_66" d="M1219.11 551.691L1209.62 552.322L1204.61 552.659V540.523L1211.18 539.331L1215.25 538.587C1215.25 538.587 1227.83 501.225 1239.91 508.016C1251.99 514.806 1219.11 551.691 1219.11 551.691Z" fill="#714B4F"/>
<path id="Vector_67" d="M1066.81 451.671C1066.81 451.671 1060.51 475.929 1058.59 490.955C1056.66 505.981 1103.55 493.873 1103.55 493.873C1103.55 493.873 1085.65 472.042 1095.82 460.397L1066.81 451.671Z" fill="#714B4F"/>
<path id="Vector_68" d="M1117.57 552.687L1118.53 561.905L1103.55 560.937L1088.56 547.833L1073.57 505.602L1063.93 490.548L1056.67 481.33L1059.58 470.106C1059.58 470.106 1060.91 471.271 1063.14 472.982C1070.51 478.594 1087.78 490.394 1100.4 487.139C1100.98 486.991 1101.56 486.808 1102.12 486.592L1120.98 519.099L1117.57 552.687Z" fill="#E6E6F0"/>
<path id="Vector_69" opacity="0.1" d="M1063.42 467.258C1063.42 467.258 1055.69 468.661 1050.36 480.362C1046.28 489.313 1032.47 498.601 1026.3 502.347C1025.13 503.068 1024.11 504.018 1023.3 505.141C1022.5 506.264 1021.93 507.537 1021.62 508.885C1020.38 514.413 1019.9 524.725 1026.67 539.555C1037.31 562.845 1045.04 573.031 1045.04 573.031C1045.04 573.031 1046.97 596.321 1044.07 603.111C1041.18 609.902 1044.07 647.264 1044.07 647.264C1044.07 647.264 1094.84 656.973 1111.77 647.264C1128.7 637.555 1126.28 600.193 1126.28 600.193C1126.28 600.193 1142.23 634.16 1148.03 635.128L1144.65 616.201C1144.65 616.201 1125.79 595.816 1124.82 569.622C1124.82 569.622 1119.02 545.84 1123.86 539.541C1123.86 539.541 1205.58 546.332 1210.41 540.509C1210.41 540.509 1156.74 538.082 1148.52 524.978C1148.52 524.978 1124.82 506.051 1123.86 493.438C1123.72 491.07 1122.98 488.777 1121.71 486.777C1120.44 484.776 1118.68 483.133 1116.6 482.004C1113.32 480.126 1109.54 479.281 1105.77 479.576L1094.85 480.334C1094.85 480.334 1113.71 513.81 1112.75 518.215C1111.78 522.621 1113.71 558.005 1113.71 558.005C1113.71 558.005 1091.89 510.934 1082.28 505.602C1072.68 500.271 1061.48 478.328 1061.48 478.328L1063.41 467.244" fill="black"/>
<path id="Vector_70" opacity="0.1" d="M1117.57 552.687L1118.53 561.905L1103.55 560.937L1088.56 547.833L1073.57 505.602L1063.93 490.548L1056.67 481.33L1059.58 470.106C1059.58 470.106 1060.91 471.271 1063.14 472.982L1062.47 476.813C1062.47 476.813 1073.66 498.728 1083.26 504.073C1092.87 509.418 1114.69 556.475 1114.69 556.475C1114.69 556.475 1112.76 521.049 1113.72 516.686C1114.38 513.726 1105.91 497.367 1100.4 487.139C1100.98 486.991 1101.56 486.808 1102.12 486.592L1120.98 519.099L1117.57 552.687Z" fill="black"/>
<path id="Vector_71" opacity="0.1" d="M1209.62 552.322L1204.61 552.659V540.523L1211.18 539.331C1208.89 542.375 1208.97 547.763 1209.62 552.322Z" fill="black"/>
<path id="Vector_72" d="M1063.42 465.813C1063.42 465.813 1055.69 467.216 1050.36 478.917C1046.28 487.868 1032.47 497.156 1026.3 500.902C1025.13 501.623 1024.11 502.573 1023.3 503.696C1022.5 504.818 1021.93 506.092 1021.62 507.44C1020.38 512.968 1019.9 523.28 1026.67 538.11C1037.31 561.4 1045.04 571.586 1045.04 571.586C1045.04 571.586 1046.97 594.876 1044.07 601.666C1041.18 608.457 1044.07 645.819 1044.07 645.819C1044.07 645.819 1094.84 655.528 1111.77 645.819C1128.7 636.11 1126.28 598.748 1126.28 598.748C1126.28 598.748 1142.22 632.659 1148.03 633.697L1144.65 614.77C1144.65 614.77 1125.79 594.385 1124.82 568.19C1124.82 568.19 1119.02 544.409 1123.86 538.11C1123.86 538.11 1142.72 558.496 1164 558.005C1179.5 557.911 1195 558.721 1210.41 560.432C1210.41 560.432 1205.58 544.9 1210.41 539.078C1210.41 539.078 1156.74 536.651 1148.52 523.547C1148.52 523.547 1124.82 504.62 1123.86 492.007C1123.72 489.639 1122.98 487.346 1121.71 485.346C1120.44 483.345 1118.68 481.702 1116.6 480.573C1113.32 478.695 1109.54 477.85 1105.77 478.145L1094.85 478.903C1094.85 478.903 1113.71 512.379 1112.75 516.784C1111.78 521.19 1113.71 556.574 1113.71 556.574C1113.71 556.574 1091.89 509.475 1082.28 504.143C1072.68 498.812 1061.48 476.925 1061.48 476.925L1063.41 465.841" fill="#C48C96"/>
<path id="Vector_73" opacity="0.1" d="M1052.74 516.756C1052.74 516.756 1064.35 556.04 1071.11 560.909C1077.88 565.777 1118.98 590.512 1131.07 584.69C1131.07 584.69 1133.98 599.253 1129.68 602.648C1129.68 602.648 1084.59 600.881 1084.23 600.712C1084.23 600.712 1054.73 596.826 1049.89 582.277C1045.05 567.727 1039.25 542.992 1039.25 542.992L1052.74 516.756Z" fill="black"/>
<path id="Vector_74" d="M1114.67 561.161C1115.61 561.161 1116.37 560.075 1116.37 558.734C1116.37 557.394 1115.61 556.307 1114.67 556.307C1113.74 556.307 1112.98 557.394 1112.98 558.734C1112.98 560.075 1113.74 561.161 1114.67 561.161Z" fill="#BA7855"/>
<path id="Vector_75" d="M1119.5 578.138C1120.43 578.138 1121.19 577.051 1121.19 575.711C1121.19 574.37 1120.43 573.283 1119.5 573.283C1118.56 573.283 1117.81 574.37 1117.81 575.711C1117.81 577.051 1118.56 578.138 1119.5 578.138Z" fill="#BA7855"/>
<g id="Group_4" opacity="0.1">
<path id="Vector_76" opacity="0.1" d="M1047.47 645.286C1047.47 645.286 1044.56 607.924 1047.47 601.133C1050.38 594.343 1048.44 571.053 1048.44 571.053C1048.44 571.053 1040.7 560.867 1030.07 537.577C1023.28 522.747 1023.77 512.435 1025.02 506.907C1025.32 505.559 1025.9 504.285 1026.7 503.162C1027.51 502.039 1028.53 501.09 1029.7 500.369C1035.87 496.581 1049.67 487.335 1053.76 478.384C1056.77 471.818 1060.53 468.493 1063.24 466.837L1063.42 465.771C1063.42 465.771 1055.69 467.174 1050.36 478.875C1046.28 487.826 1032.47 497.114 1026.3 500.86C1025.13 501.581 1024.11 502.531 1023.3 503.653C1022.5 504.776 1021.93 506.05 1021.62 507.398C1020.38 512.926 1019.9 523.238 1026.67 538.068C1037.31 561.358 1045.04 571.544 1045.04 571.544C1045.04 571.544 1046.97 594.834 1044.07 601.624C1041.18 608.415 1044.07 645.777 1044.07 645.777C1044.07 645.777 1080.34 652.708 1101.79 648.99C1080.13 651.585 1047.47 645.286 1047.47 645.286Z" fill="black"/>
<path id="Vector_77" opacity="0.1" d="M1112.73 516.756C1112.07 519.745 1112.73 537.324 1113.28 548.099C1115.61 552.884 1117.08 556.068 1117.08 556.068C1117.08 556.068 1115.15 520.642 1116.11 516.279C1117.04 512.07 1100.05 481.681 1098.36 478.678L1094.84 478.917C1094.84 478.917 1113.71 512.393 1112.73 516.756Z" fill="black"/>
<path id="Vector_78" opacity="0.1" d="M1167.38 557.513C1146.1 558.004 1127.24 537.619 1127.24 537.619C1126.68 538.409 1126.27 539.299 1126.03 540.242C1131.62 545.462 1147 558.383 1164 557.99C1179.5 557.897 1195 558.707 1210.41 560.418C1210.41 560.418 1210.32 560.095 1210.16 559.548C1195.95 558.073 1181.67 557.394 1167.38 557.513Z" fill="black"/>
<path id="Vector_79" opacity="0.1" d="M1129.63 598.271C1129.63 598.271 1129.83 601.302 1129.72 605.847C1134.75 615.865 1143.91 632.995 1148 633.683L1147.29 629.698C1140.26 620.831 1129.63 598.271 1129.63 598.271Z" fill="black"/>
</g>
<path id="Vector_80" d="M1143.2 593.375L1132.92 595.549L1124.81 597.261L1129.16 585.125L1132.19 584.367L1136.9 583.189C1136.9 583.189 1143.67 549.222 1157.22 551.649C1170.76 554.076 1143.2 593.375 1143.2 593.375Z" fill="#714B4F"/>
<path id="Vector_81" opacity="0.1" d="M1132.93 595.591L1124.82 597.303L1129.17 585.167L1132.21 584.409C1132.88 588.096 1133.12 591.848 1132.93 595.591Z" fill="black"/>
<path id="Vector_82" d="M1052.74 515.788C1052.74 515.788 1064.35 555.072 1071.11 559.941C1077.88 564.809 1118.98 589.544 1131.07 583.722C1131.07 583.722 1133.98 598.285 1129.68 601.68C1129.68 601.68 1084.59 599.913 1084.23 599.744C1084.23 599.744 1054.73 595.858 1049.89 581.309C1045.05 566.759 1039.25 542.024 1039.25 542.024L1052.74 515.788Z" fill="#C48C96"/>
<path id="Vector_83" opacity="0.1" d="M1067.28 452.709C1067.28 452.709 1066.3 456.511 1064.99 462.039C1067.67 467.128 1071.94 471.192 1077.15 473.601C1082.35 476.01 1088.21 476.631 1093.8 475.367C1092.64 470.387 1092.89 465.35 1096.29 461.449L1067.28 452.709Z" fill="black"/>
<path id="Vector_84" d="M1087.59 475.031C1102.02 475.031 1113.71 463.297 1113.71 448.822C1113.71 434.348 1102.02 422.614 1087.59 422.614C1073.17 422.614 1061.48 434.348 1061.48 448.822C1061.48 463.297 1073.17 475.031 1087.59 475.031Z" fill="#714B4F"/>
<path id="Vector_85" opacity="0.1" d="M1110.27 441.611C1112.16 442.141 1114.14 442.265 1116.09 441.976C1118.1 441.429 1119.88 440.239 1121.16 438.586C1122.43 436.932 1123.14 434.906 1123.16 432.814C1123.12 430.722 1122.62 428.665 1121.69 426.794C1120.76 424.922 1119.42 423.283 1117.78 421.997C1115.57 420.145 1112.93 418.84 1110.9 416.778C1108.51 414.323 1107.2 411.039 1105.31 408.149C1102.2 403.37 1097.59 399.77 1092.21 397.921C1088.21 396.518 1083.3 396.406 1080.23 399.324C1078.65 400.826 1077.72 402.972 1075.96 404.249C1073.4 406.073 1069.94 405.54 1066.82 405.904C1064 406.335 1061.32 407.456 1059.03 409.169C1056.74 410.882 1054.9 413.133 1053.68 415.726C1051.29 421.012 1050.84 426.972 1052.39 432.562C1052.99 434.947 1053.89 437.248 1054.53 439.577C1055.93 444.515 1056.21 449.692 1057.77 454.561C1059.34 459.429 1062.57 464.199 1067.46 465.659C1067.08 460.194 1068.15 454.725 1070.58 449.819C1070.98 448.746 1071.77 447.864 1072.79 447.349C1073.66 447.125 1074.57 447.125 1075.45 447.349C1081.58 448.26 1087.83 446.989 1093.13 443.758C1094.99 442.635 1097.88 438.763 1099.86 438.384C1102.4 437.949 1107.61 441.022 1110.27 441.611Z" fill="black"/>
<path id="Vector_86" d="M1110.27 440.643C1112.16 441.173 1114.14 441.297 1116.09 441.008C1118.1 440.461 1119.88 439.271 1121.16 437.618C1122.43 435.964 1123.14 433.938 1123.16 431.846C1123.12 429.754 1122.62 427.697 1121.69 425.826C1120.76 423.954 1119.42 422.315 1117.78 421.029C1115.57 419.177 1112.93 417.872 1110.9 415.81C1108.51 413.354 1107.2 410.071 1105.31 407.181C1102.2 402.402 1097.59 398.802 1092.21 396.953C1088.21 395.55 1083.3 395.438 1080.23 398.356C1078.65 399.858 1077.72 402.004 1075.96 403.281C1073.4 405.105 1069.94 404.572 1066.82 404.936C1064 405.367 1061.32 406.488 1059.03 408.201C1056.74 409.914 1054.9 412.165 1053.68 414.757C1051.29 420.044 1050.84 426.004 1052.39 431.594C1052.99 433.979 1053.89 436.28 1054.53 438.609C1055.93 443.547 1056.21 448.724 1057.77 453.593C1059.34 458.461 1062.57 463.231 1067.46 464.691C1067.09 459.228 1068.17 453.765 1070.61 448.865C1071.01 447.792 1071.8 446.91 1072.82 446.395C1073.69 446.171 1074.6 446.171 1075.47 446.395C1081.61 447.306 1087.86 446.035 1093.16 442.804C1095.02 441.681 1097.91 437.809 1099.88 437.43C1102.4 436.981 1107.61 440.054 1110.27 440.643Z" fill="#503F43"/>
<path id="Vector_87" d="M1370.8 354.147L1349.49 593.641L1253.72 620.298L1158.22 593.641L1136.95 354.147H1370.8Z" fill="#E44D26"/>
<path id="Vector_88" d="M1253.86 599.927L1331.25 578.404L1349.42 373.733H1253.86V599.927Z" fill="#F16529"/>
<path id="Vector_89" d="M1212.45 432.491H1253.86V403.112H1180.47L1181.17 410.997L1188.37 491.951H1253.88V462.572H1215.14L1212.45 432.491ZM1219.11 506.64H1189.75L1193.85 552.771L1253.74 569.523H1253.88V538.868H1253.75L1221.15 530.029L1219.11 506.64Z" fill="#EBEBEB"/>
<path id="Vector_90" d="M1158.71 289.048H1173.59V303.793H1187.19V289.048H1202.07V333.72H1187.19V318.764H1173.59V333.72H1158.71V289.048ZM1221.63 303.864H1208.53V289.048H1249.6V303.864H1236.5V333.72H1221.64V303.864H1221.63ZM1256.13 289.048H1271.65L1281.2 304.747L1290.73 289.048H1306.25V333.72H1291.43V311.58L1281.2 327.462H1280.94L1270.7 311.58V333.72H1256.13V289.048ZM1313.64 289.048H1328.52V318.946H1349.49V333.706H1313.69V289.048H1313.64Z" fill="black"/>
<path id="Vector_91" d="M1253.77 491.951H1289.81L1286.41 530.057L1253.77 538.896V569.523L1313.78 552.828L1314.22 547.861L1321.1 470.513L1321.81 462.628H1253.77V492.007V491.951ZM1253.77 432.421V432.491H1324.48L1325.07 425.883L1326.46 410.983L1327.16 403.098H1253.77V432.407V432.421Z" fill="white"/>
<path id="Vector_92" d="M512.705 530.955C509.979 522.943 506.05 512.715 502.919 510.386C502.73 510.235 502.523 510.108 502.303 510.008H501.912V500.116L494.558 501.295C493.378 497.72 492.485 494.056 491.888 490.337C492.596 491.049 493.499 491.534 494.482 491.731C495.465 491.928 496.484 491.829 497.41 491.446C497.284 491.249 497.187 491.039 497.075 490.829L497.41 490.688C496.253 488.638 495.641 486.324 495.635 483.968C495.696 481.818 496.039 479.686 496.655 477.626C497.969 473.066 500.192 468.801 501.437 464.228C502.232 461.274 502.608 458.223 502.555 455.164C502.593 449.982 501.415 444.863 499.116 440.222C498.545 438.886 497.652 437.714 496.515 436.813C495.481 436.238 494.417 435.718 493.328 435.255C491.505 434.023 489.934 432.451 488.7 430.625C483.478 424.244 476.486 419.562 468.61 417.171C466.56 416.406 464.338 416.232 462.193 416.665C457.258 418.068 455.455 424.144 451.456 427.356C447.919 430.162 443.068 430.485 438.65 431.439C434.115 432.213 429.94 434.409 426.725 437.711C424.634 440.109 423.495 443.195 423.524 446.381C423.403 447.868 423.665 449.361 424.285 450.717C424.904 452.073 425.86 453.247 427.061 454.126C428.427 455.028 429.976 455.615 431.595 455.845C433.215 456.076 434.865 455.944 436.428 455.459C435.207 459.69 434.871 464.13 435.44 468.498C436.009 472.866 437.472 477.069 439.737 480.843C442.001 484.617 445.018 487.881 448.599 490.43C452.179 492.979 456.246 494.758 460.544 495.655L461.411 497.198C464.055 502.147 466.061 507.413 467.38 512.87C460.614 516.728 453.218 520.334 448.758 520.671C448.581 522.42 448.259 524.152 447.794 525.848C446.752 530.106 444.747 534.066 441.936 537.422C435.868 544.269 408.564 596.04 408.564 596.04C408.564 596.04 407.698 598.103 406.3 601.652C389.341 603.743 361.674 606.759 353.943 605.202L323.605 576.272C323.605 576.272 313.819 583.778 314.658 592.897L309.191 587.678C309.191 587.678 280.364 609.748 325.884 624.156L395.143 632.224C388.544 652.203 382.393 675.451 384.294 688.106H384.868C386.192 688.103 387.515 688 388.824 687.797L388.698 690.042L382.03 809.901C382.03 809.901 380.506 831.97 400.987 841.875C400.987 841.875 426.026 915.716 416.156 924.092C416.156 924.092 417.33 924.709 419.301 925.579L398.708 943.818C398.708 943.818 383.539 947.62 375.193 946.863C373.726 946.662 372.237 947.01 371.01 947.841C369.782 948.671 368.903 949.926 368.538 951.366C368.538 951.521 368.538 951.675 368.455 951.843V952.04C368.455 952.194 368.455 952.362 368.455 952.531C368.455 952.699 368.455 952.657 368.455 952.713C368.455 952.769 368.455 952.994 368.455 953.134V953.316C368.455 953.485 368.455 953.639 368.552 953.807V953.99C368.599 954.168 368.655 954.341 368.72 954.509V954.677C368.79 954.846 368.874 955.014 368.958 955.182V955.295C369.056 955.463 369.154 955.631 369.265 955.8L369.363 955.94C369.484 956.118 369.62 956.295 369.769 956.473L369.881 956.613C370.034 956.796 370.202 956.964 370.384 957.147H370.468L371.027 957.624L371.153 957.722L371.838 958.213L372.006 958.325L372.802 958.788H372.928L373.781 959.209H373.907L374.9 959.616L375.109 959.7L376.214 960.065H376.395L377.584 960.374H377.682L379.08 960.64H379.345L380.743 960.851H381.009L382.617 961.005C385.734 961.243 389.943 961.328 394.808 961.314C394.808 961.314 394.808 961.44 394.808 961.496C394.808 961.552 394.808 961.777 394.808 961.917V962.099C394.808 962.268 394.808 962.422 394.906 962.59V962.773C394.952 962.95 395.008 963.123 395.073 963.292V963.46C395.143 963.629 395.227 963.797 395.311 963.965V964.077C395.409 964.246 395.507 964.414 395.619 964.583L395.716 964.723C395.838 964.901 395.973 965.078 396.122 965.256L396.234 965.396C396.388 965.579 396.555 965.747 396.737 965.929H396.807L397.366 966.406L397.492 966.505L398.177 966.996L398.345 967.108L399.128 967.571H399.254L400.106 967.992H400.232L401.225 968.399L401.434 968.483L402.539 968.848H402.721L403.909 969.156H404.007L405.405 969.423H405.671L407.069 969.633H407.334L408.942 969.788C428.668 971.317 491.622 966.743 491.622 966.743V966.561V966.336C492.251 963.39 495.271 946.259 484.534 933.59C484.856 933.253 485.163 932.903 485.457 932.538C485.457 932.538 477.069 918.073 481.668 913.513C486.268 908.953 459.453 830.483 459.453 830.483C459.453 830.483 445.039 807.642 453.386 781.756C461.732 755.871 452.631 727.713 452.631 727.713C452.631 727.713 472.553 721.792 472.916 697.197C472.916 696.454 472.916 695.682 472.916 694.91C473.333 694.971 473.754 694.999 474.175 694.994C474.454 695.014 474.734 695.014 475.014 694.994C475.014 694.994 471.225 681.287 475.768 671.396C480.312 661.505 490.182 670.638 499.284 630.288C505.868 601.091 511.656 567.517 514.368 551.172C515.483 544.398 514.911 537.453 512.705 530.955ZM339.599 616.538L332.679 609.944C334.971 610.898 337.516 611.824 340.354 612.75L366.427 615.823C354.796 616.875 343.933 617.464 339.599 616.58V616.538Z" fill="url(#paint1_linear)"/>
<path id="Vector_93" d="M405.629 612.694C405.629 612.694 351.972 620.172 340.788 617.927L310.981 589.502C310.981 589.502 282.657 611.193 327.38 625.405L410.844 635.128L405.629 612.694Z" fill="#FDC2CC"/>
<path id="Vector_94" opacity="0.05" d="M405.629 612.694C405.629 612.694 351.972 620.172 340.788 617.927L310.981 589.502C310.981 589.502 282.657 611.193 327.38 625.405L410.844 635.128L405.629 612.694Z" fill="black"/>
<path id="Vector_95" d="M300.594 631.564L184.64 599.295L158.804 308.452H442.733L416.869 599.253L300.594 631.564Z" fill="#264DE4"/>
<path id="Vector_96" d="M394.724 580.747L416.827 332.247H300.789V606.829L394.724 580.747Z" fill="#2965F1"/>
<path id="Vector_97" d="M218.109 440.068L221.296 475.732H300.845V440.068H218.109ZM211.706 367.869L214.935 403.533H300.831V367.869H211.636H211.706ZM300.831 532.708H300.677L261.085 521.975L258.554 493.522H222.806L227.783 549.53L300.593 569.86H300.761L300.831 532.708Z" fill="#EBEBEB"/>
<path id="Vector_98" d="M225.631 229.378H268.676V247.449H243.623V265.519H268.676V283.59H225.631V229.378ZM277.358 229.378H320.404V245.092H295.295V248.234H320.348V284.376H277.288V267.876H302.341V264.734H277.288V229.378H277.358ZM329.086 229.378H372.132V245.092H346.953V248.234H372.006V284.376H328.946V267.876H353.999V264.734H328.946V229.378H329.086Z" fill="black"/>
<path id="Vector_99" d="M383.274 440.068L389.691 367.869H300.594V403.533H350.686L347.456 440.012H300.594V475.676H344.366L340.172 521.975L300.594 532.736V569.846L373.46 549.572L373.991 543.54L382.379 449.622L383.246 440.04L383.274 440.068Z" fill="white"/>
<path id="Vector_100" d="M425.02 916.333L398.932 939.511C398.932 939.511 384.029 943.257 375.837 942.499C367.644 941.742 363.911 955.21 383.288 956.712C402.665 958.213 464.514 953.723 464.514 953.723C464.514 953.723 470.47 929.788 452.589 916.333H425.02Z" fill="#47465A"/>
<path id="Vector_101" opacity="0.05" d="M425.02 916.333L398.932 939.511C398.932 939.511 384.029 943.257 375.837 942.499C367.644 941.742 363.911 955.21 383.288 956.712C402.665 958.213 464.514 953.723 464.514 953.723C464.514 953.723 470.47 929.788 452.589 916.333H425.02Z" fill="black"/>
<path id="Vector_102" opacity="0.3" d="M465.437 943.383C465.393 946.111 465.079 948.827 464.5 951.493C464.5 951.493 402.651 955.982 383.274 954.481C373.949 953.765 369.992 950.272 369.293 946.933C368.441 950.777 371.824 955.842 383.274 956.754C402.651 958.255 464.5 953.765 464.5 953.765C465.229 950.355 465.543 946.869 465.437 943.383Z" fill="white"/>
<path id="Vector_103" d="M455.553 492.358C455.553 492.358 471.952 515.536 465.982 531.249C460.013 546.963 497.285 514.792 497.285 514.792C497.285 514.792 485.359 493.761 491.329 471.313L455.553 492.358Z" fill="#FDC2CC"/>
<path id="Vector_104" d="M451.079 925.312L425.019 948.49C425.019 948.49 410.116 952.236 401.924 951.479C393.731 950.721 389.998 964.19 409.375 965.691C428.752 967.192 490.602 962.703 490.602 962.703C490.602 962.703 496.557 938.767 478.676 925.312H451.079Z" fill="#47465A"/>
<path id="Vector_105" d="M458.573 920.079C454.686 924.891 449.206 926.743 443.474 927.024C430.444 927.641 416.1 920.079 416.1 920.079C425.788 911.857 401.197 839.308 401.197 839.308C381.079 829.585 382.561 807.895 382.561 807.895L389.076 690.182L390.726 660.607L411.598 647.896L428.039 660.523L443.642 672.532C444.658 676.353 445.313 680.261 445.599 684.205C447.416 711.69 425.761 718.158 425.761 718.158C425.761 718.158 434.708 745.825 426.502 771.262C418.295 796.699 432.457 819.133 432.457 819.133C432.457 819.133 459.286 896.915 454.826 901.405C450.366 905.895 458.573 920.079 458.573 920.079Z" fill="#565171"/>
<path id="Vector_106" opacity="0.05" d="M458.573 920.079C454.686 924.891 449.206 926.743 443.474 927.024C430.444 927.641 416.1 920.079 416.1 920.079C425.788 911.857 401.197 839.308 401.197 839.308C381.079 829.585 382.561 807.895 382.561 807.895L389.076 690.182L390.726 660.607L411.598 647.896L428.039 660.523L443.642 672.532C444.658 676.353 445.313 680.261 445.599 684.205C447.416 711.69 425.761 718.158 425.761 718.158C425.761 718.158 434.708 745.825 426.502 771.262C418.295 796.699 432.457 819.133 432.457 819.133C432.457 819.133 459.286 896.915 454.826 901.405C450.366 905.895 458.573 920.079 458.573 920.079Z" fill="black"/>
<path id="Vector_107" d="M484.618 929.044C471.952 944.744 442.146 929.044 442.146 929.044C442.746 928.489 443.194 927.789 443.446 927.01C448.912 912.096 425.006 840.795 425.006 840.795C404.888 831.072 402.637 807.895 402.637 807.895L397.366 688.049L396.681 672.532L428.039 660.522L437.672 656.833L469.757 681.511C471.135 686.624 471.812 691.901 471.77 697.197C471.365 721.343 451.834 727.179 451.834 727.179C451.834 727.179 460.782 754.847 452.575 780.283C444.369 805.72 458.573 828.084 458.573 828.084C458.573 828.084 485.401 905.867 480.942 910.356C476.482 914.846 484.618 929.044 484.618 929.044Z" fill="#565171"/>
<path id="Vector_108" opacity="0.1" d="M471.77 697.197C465.325 696.271 452.281 688.484 445.585 684.261C443.026 682.648 441.391 681.568 441.391 681.568C441.391 681.568 434.68 662.865 416.799 677.078C410.982 681.819 404.413 685.547 397.366 688.106C394.674 689.062 391.899 689.762 389.076 690.196L390.726 660.621L411.598 647.909L428.039 660.537L437.672 656.847L469.757 681.512C471.135 686.624 471.812 691.901 471.77 697.197Z" fill="black"/>
<path id="Vector_109" d="M512.104 553.683C509.448 569.734 503.716 602.789 497.285 631.396C488.337 671.031 478.649 662.052 474.189 671.775C469.729 681.498 473.448 694.952 473.448 694.952C465.996 695.696 441.405 679.253 441.405 679.253C441.405 679.253 434.694 660.551 416.813 674.763C398.932 688.976 384.77 688.218 384.77 688.218C381.037 663.539 408.621 597.724 408.621 597.724C408.621 597.724 435.449 546.865 441.405 540.2C444.168 536.906 446.139 533.018 447.165 528.836C447.622 527.173 447.94 525.474 448.115 523.757C457.804 523.014 481.668 506.556 481.668 506.556L500.304 503.568V513.291C500.525 513.39 500.732 513.517 500.92 513.67C503.981 516.013 507.91 526.002 510.524 533.873C512.665 540.246 513.207 547.05 512.104 553.683Z" fill="#E1A0A7"/>
<path id="Vector_110" d="M425.02 623.918L415.387 622.796L341.557 614.195C296.819 599.983 325.158 578.292 325.158 578.292L354.964 606.717C363.562 608.443 397.297 604.416 412.41 602.508C416.939 601.919 419.805 601.526 419.805 601.526L425.02 623.918Z" fill="#FDC2CC"/>
<path id="Vector_111" opacity="0.1" d="M497.285 522.958C497.285 522.958 477.908 507.258 448.786 558.103C419.665 608.948 413.01 600.726 413.01 600.726C413.01 600.726 418.966 623.174 415.988 627.65C415.988 627.65 436.106 626.149 443.558 627.65C451.009 629.151 497.215 570.814 497.215 570.814C497.215 570.814 521.135 537.914 497.285 522.958Z" fill="black"/>
<path id="Vector_112" opacity="0.1" d="M496.544 519.969C496.544 519.969 477.167 504.269 448.101 555.114C419.036 605.959 412.325 597.738 412.325 597.738C412.325 597.738 435.421 623.16 442.873 624.662C450.324 626.163 496.53 567.826 496.53 567.826C496.53 567.826 520.394 534.925 496.544 519.969Z" fill="black"/>
<path id="Vector_113" opacity="0.1" d="M415.373 622.838C415.681 617.296 413.598 607.559 412.395 602.508C416.925 601.919 419.791 601.526 419.791 601.526L425.006 623.974L415.373 622.838Z" fill="black"/>
<path id="Vector_114" d="M497.285 521.456C497.285 521.456 477.908 505.757 448.786 556.616C419.665 607.475 413.01 599.239 413.01 599.239C413.01 599.239 418.966 621.687 415.988 626.163C415.988 626.163 436.106 624.662 443.558 626.163C451.009 627.664 497.215 569.327 497.215 569.327C497.215 569.327 521.135 536.412 497.285 521.456Z" fill="#E1A0A7"/>
<path id="Vector_115" opacity="0.1" d="M492.126 472.842L456.294 493.761C457.81 495.968 459.21 498.253 460.488 500.608C462.549 501.028 464.648 501.239 466.751 501.239C476.3 501.239 480.732 491.179 486.505 484.403C486.086 479.015 490.476 478.875 492.126 472.842Z" fill="black"/>
<path id="Vector_116" d="M465.982 499.78C483.27 499.78 497.284 485.716 497.284 468.366C497.284 451.017 483.27 436.953 465.982 436.953C448.694 436.953 434.68 451.017 434.68 468.366C434.68 485.716 448.694 499.78 465.982 499.78Z" fill="#FDC2CC"/>
<path id="Vector_117" opacity="0.1" d="M426.418 442.958C429.574 439.709 433.676 437.548 438.133 436.785C442.481 435.845 447.248 435.564 450.716 432.772C454.644 429.615 456.406 423.61 461.257 422.264C463.365 421.841 465.548 422.015 467.562 422.769C475.301 425.116 482.171 429.716 487.302 435.985C488.517 437.784 490.064 439.332 491.86 440.545C492.93 440.999 493.975 441.509 494.992 442.074C496.105 442.962 496.979 444.114 497.536 445.427C501.029 452.508 501.834 460.622 499.801 468.254C498.585 472.758 496.404 476.939 495.103 481.428C493.803 485.918 493.482 490.997 495.844 495.01C493.552 496.188 490.658 494.701 489.218 492.554C487.778 490.408 487.344 487.77 486.589 485.287C485.104 480.412 482.308 476.043 478.509 472.66C476.16 470.583 471.966 469.18 470.33 471.86C469.701 472.898 469.743 474.231 469.198 475.311C468.135 477.43 465.004 477.851 463.004 476.714C461.036 475.351 459.653 473.291 459.132 470.948C456.07 460.524 450.827 453.972 439.727 458.419C435.533 460.075 430.71 461.225 426.725 458.419C421.622 454.659 422.643 447.209 426.418 442.958Z" fill="black"/>
<path id="Vector_118" d="M426.418 442.2C429.574 438.952 433.676 436.791 438.133 436.027C442.481 435.087 447.248 434.807 450.716 432.015C454.644 428.858 456.406 422.853 461.257 421.506C463.365 421.083 465.548 421.258 467.562 422.011C475.301 424.358 482.171 428.958 487.302 435.227C488.517 437.026 490.064 438.574 491.86 439.787C492.93 440.241 493.975 440.752 494.992 441.316C496.105 442.204 496.979 443.357 497.536 444.67C501.029 451.75 501.834 459.864 499.801 467.497C498.585 472 496.404 476.181 495.103 480.671C493.803 485.161 493.482 490.239 495.844 494.252C493.552 495.431 490.658 493.943 489.218 491.797C487.778 489.65 487.344 487.013 486.589 484.529C485.104 479.654 482.308 475.285 478.509 471.902C476.16 469.826 471.966 468.423 470.33 471.102C469.701 472.141 469.743 473.473 469.198 474.554C468.135 476.672 465.004 477.093 463.004 475.957C461.036 474.593 459.653 472.534 459.132 470.19C456.07 459.766 450.827 453.214 439.727 457.662C435.533 459.317 430.71 460.468 426.725 457.662C421.622 453.915 422.643 446.466 426.418 442.2Z" fill="#8F5A6A"/>
<path id="Vector_119" opacity="0.05" d="M500.877 513.614H485.736C485.736 513.614 455.93 528.57 455.189 527.826C454.686 527.321 450.072 528.191 447.15 528.794C447.608 527.131 447.926 525.432 448.101 523.715C457.79 522.972 481.654 506.514 481.654 506.514L500.29 503.526V513.249C500.5 513.346 500.697 513.468 500.877 513.614Z" fill="black"/>
<path id="Vector_120" opacity="0.3" d="M491.511 952.348C491.466 955.076 491.153 957.792 490.574 960.458C490.574 960.458 428.724 964.947 409.347 963.446C400.022 962.731 396.066 959.237 395.367 955.898C394.514 959.742 397.897 964.807 409.347 965.719C428.724 967.22 490.574 962.731 490.574 962.731C491.302 959.321 491.617 955.834 491.511 952.348Z" fill="white"/>
<g id="Group_5" opacity="0.05">
<path id="Vector_121" opacity="0.05" d="M409.725 674.019C399.673 682.017 390.781 685.243 384.938 686.646C384.938 687.208 385.049 687.755 385.133 688.288C385.133 688.288 399.295 689.032 417.177 674.833C419.947 672.451 423.222 670.733 426.753 669.81C422.853 667.888 417.288 668.014 409.725 674.019Z" fill="black"/>
<path id="Vector_122" opacity="0.05" d="M510.86 533.803C508.189 525.932 504.317 515.957 501.255 513.6C501.067 513.447 500.86 513.32 500.64 513.221C500.64 513.221 494.474 513.431 494.684 513.6C497.746 515.943 500.738 525.188 503.408 533.045C505.572 539.432 506.129 546.257 505.03 552.912C502.373 568.962 496.641 602.017 490.21 630.624C481.263 670.259 471.574 661.28 467.115 671.003C463.452 678.972 465.283 689.439 466.08 692.96C468.49 694.171 471.132 694.845 473.825 694.938C473.825 694.938 470.093 681.484 474.566 671.761C479.04 662.038 488.729 671.017 497.662 631.382C504.135 602.705 509.825 569.65 512.481 553.669C513.581 547.014 513.023 540.19 510.86 533.803Z" fill="black"/>
</g>
<path id="Vector_123" d="M597.469 673.5C600.031 671.404 601.898 668.576 602.823 665.391C603.522 662.164 602.152 658.306 599.076 657.127C595.637 655.808 591.96 658.194 589.178 660.621C586.396 663.048 583.195 665.798 579.546 665.279C581.421 663.573 582.824 661.408 583.618 658.996C584.412 656.584 584.569 654.007 584.075 651.515C583.918 650.483 583.483 649.513 582.817 648.709C580.902 646.661 577.449 647.545 575.156 649.158C567.886 654.293 565.859 664.198 565.817 673.122C565.09 669.909 565.705 666.556 565.677 663.301C565.649 660.046 564.754 656.285 561.986 654.574C560.27 653.648 558.342 653.189 556.394 653.241C553.123 653.115 549.488 653.451 547.251 655.851C544.455 658.825 545.196 663.834 547.614 667.075C550.033 670.316 553.696 672.406 557.079 674.679C559.791 676.297 562.104 678.507 563.846 681.147C564.051 681.513 564.219 681.898 564.349 682.297H584.83C589.419 679.951 593.67 676.991 597.469 673.5Z" fill="#6C63FF"/>
<path id="Vector_124" d="M635.09 936.943C638.347 933.899 641.409 930.307 642.36 925.944C643.31 921.58 641.451 916.333 637.285 914.72C632.629 912.924 627.638 916.123 623.864 919.448C620.089 922.773 615.755 926.463 610.82 925.761C613.362 923.448 615.263 920.513 616.338 917.243C617.414 913.973 617.627 910.479 616.957 907.101C616.741 905.707 616.151 904.398 615.252 903.313C612.665 900.507 607.968 901.728 604.878 903.916C595.092 910.931 592.296 924.302 592.226 936.396C591.233 932.033 592.072 927.487 592.044 923.011C592.016 918.536 590.8 913.583 587.039 911.17C584.697 909.907 582.063 909.287 579.406 909.374C574.974 909.206 570.039 909.655 567.019 912.91C563.258 916.95 564.223 923.727 567.508 928.174C570.794 932.622 575.757 935.414 580.328 938.486C583.999 940.682 587.128 943.679 589.486 947.255C589.765 947.755 589.995 948.281 590.171 948.827H617.95C624.171 945.659 629.936 941.661 635.09 936.943Z" fill="#6C63FF"/>
</g>
<defs>
<linearGradient id="paint0_linear" x1="1124.22" y1="865.348" x2="1124.22" y2="390.359" gradientUnits="userSpaceOnUse">
<stop stop-color="#808080" stop-opacity="0.25"/>
<stop offset="0.54" stop-color="#808080" stop-opacity="0.12"/>
<stop offset="1" stop-color="#808080" stop-opacity="0.1"/>
</linearGradient>
<linearGradient id="paint1_linear" x1="81153.6" y1="430650" x2="81153.6" y2="211835" gradientUnits="userSpaceOnUse">
<stop stop-color="#808080" stop-opacity="0.25"/>
<stop offset="0.54" stop-color="#808080" stop-opacity="0.12"/>
<stop offset="1" stop-color="#808080" stop-opacity="0.1"/>
</linearGradient>
<clipPath id="clip0">
<rect width="1440" height="1024" fill="white"/>
</clipPath>
</defs>
</svg>
