<svg width="22" height="22" viewBox="0 0 22 22" fill="none" xmlns="http://www.w3.org/2000/svg">
<path d="M5.94206 2.75C5.70356 2.74982 5.46737 2.79663 5.24697 2.88775C5.02656 2.97887 4.82627 3.11253 4.65753 3.28107C4.48879 3.44962 4.35491 3.64976 4.26354 3.87006C4.17217 4.09036 4.12509 4.3265 4.125 4.565C4.125 5.56875 4.93831 6.40063 5.94 6.40063C6.94306 6.40063 7.75706 5.56875 7.75706 4.56638C7.75724 4.32791 7.71043 4.09175 7.6193 3.87138C7.52817 3.65102 7.3945 3.45077 7.22595 3.28209C7.05739 3.1134 6.85725 2.97959 6.63695 2.88829C6.41666 2.79699 6.18053 2.75 5.94206 2.75V2.75ZM14.8053 7.5625C13.2797 7.5625 12.4073 8.36 11.9879 9.15338H11.9439V7.77631H8.9375V17.875H12.0704V12.8762C12.0704 11.5589 12.1694 10.2857 13.7995 10.2857C15.4062 10.2857 15.4296 11.7879 15.4296 12.9594V17.875H18.5625V12.3283C18.5625 9.614 17.9788 7.5625 14.8053 7.5625ZM4.37456 7.77563V17.875H7.50956V7.77563H4.37456V7.77563Z" fill="white"/>
</svg>
