<svg width="22" height="24" viewBox="0 0 22 24" fill="none" xmlns="http://www.w3.org/2000/svg">
<path d="M7.5625 3.61823C4.91219 3.61823 2.75 5.8322 2.75 8.54599C2.75 9.27178 2.96725 9.94548 3.24431 10.5699C3.14901 11.0627 3.09861 11.5635 3.09375 12.0658C3.09375 16.529 6.64125 20.1615 11 20.1615C11.5019 20.1615 11.9859 20.0981 12.4609 20.0073C13.0708 20.291 13.7287 20.5134 14.4375 20.5134C17.0878 20.5134 19.25 18.2995 19.25 15.5857C19.25 14.8599 19.0327 14.1862 18.7557 13.5618C18.8451 13.0753 18.9062 12.5797 18.9062 12.0658C18.9062 7.60268 15.3588 3.97021 11 3.97021C10.4981 3.97021 10.0141 4.03357 9.53906 4.12438C8.92925 3.84068 8.27131 3.61823 7.5625 3.61823ZM7.5625 5.02616C8.15581 5.02616 8.70925 5.17399 9.19531 5.44432C9.34028 5.52328 9.50807 5.5465 9.66831 5.50978C10.1067 5.41977 10.5529 5.37566 11 5.37814C14.6149 5.37814 17.5312 8.36437 17.5312 12.0658C17.5312 12.5361 17.4907 12.9873 17.402 13.4301C17.3665 13.5941 17.3894 13.7656 17.4666 13.9137C17.7299 14.4114 17.875 14.9781 17.875 15.5857C17.875 17.5378 16.3439 19.1055 14.4375 19.1055C13.8442 19.1055 13.2907 18.9577 12.8047 18.6873C12.6597 18.6084 12.4919 18.5852 12.3317 18.6219C11.8933 18.7119 11.4471 18.756 11 18.7535C10.1419 18.7548 9.29208 18.5827 8.4991 18.2471C7.70612 17.9115 6.98562 17.4189 6.37888 16.7976C5.77215 16.1764 5.29111 15.4386 4.96333 14.6266C4.63555 13.8147 4.46748 12.9444 4.46875 12.0658C4.46875 11.5956 4.50931 11.1443 4.598 10.7015C4.63348 10.5376 4.61056 10.3661 4.53337 10.2179C4.26285 9.70435 4.12244 9.1295 4.125 8.54599C4.125 6.59389 5.65606 5.02616 7.5625 5.02616ZM10.8927 7.24788C9.19256 7.24788 7.36931 7.98493 7.36931 9.95393C7.36931 10.9029 7.69656 11.906 9.51775 12.3742L11.7948 12.9458C12.4795 13.119 12.6541 13.5153 12.6541 13.8701C12.6541 14.4614 12.0821 15.0359 11.0433 15.0359C9.01244 15.0359 9.273 13.4519 8.18538 13.4519C7.69725 13.4519 7.34731 13.7955 7.34731 14.2875C7.34731 15.2478 8.49956 16.51 11.0433 16.51C13.4626 16.51 14.6527 15.3132 14.6527 13.7152C14.6527 12.6818 14.1879 11.6033 12.3537 11.1859L10.6776 10.7895C10.0409 10.6417 9.30256 10.4573 9.30256 9.84411C9.30256 9.22814 9.81269 8.78816 10.7422 8.78816C12.6143 8.78816 12.4554 10.1081 13.3849 10.1081C13.8731 10.1081 14.2869 9.82229 14.2869 9.31613C14.2869 8.13347 12.4582 7.24788 10.8927 7.24788Z" fill="white"/>
</svg>
