<svg width="30" height="30" viewBox="0 0 30 30" fill="none" xmlns="http://www.w3.org/2000/svg">
<g clip-path="url(#clip0)">
<path d="M29.9713 14.1212C29.9627 14.0273 29.9577 13.933 29.9563 13.8387V13.8312L29.935 13.5487V13.5412C29.8583 12.7006 29.7103 11.868 29.4925 11.0525C29.4925 11.045 29.4925 11.045 29.485 11.0375L29.42 10.7975C29.4125 10.7837 29.4125 10.7687 29.405 10.7612C29.3825 10.6887 29.3613 10.6087 29.34 10.5362C29.3325 10.5225 29.3325 10.5 29.325 10.4862L29.26 10.275L29.2375 10.2175C29.2166 10.146 29.1924 10.0755 29.165 10.0062L29.1438 9.94122L29.0713 9.73872C29.065 9.71868 29.0575 9.69905 29.0488 9.67997C29.02 9.61497 28.9988 9.54247 28.97 9.47747C28.9625 9.46247 28.955 9.43997 28.9475 9.42622C28.9188 9.35372 28.89 9.28872 28.86 9.21622C28.86 9.20872 28.8538 9.20122 28.8538 9.19372C28.7595 8.96092 28.6578 8.73122 28.5488 8.50497L28.5263 8.46122C28.4975 8.40247 28.4763 8.35247 28.4475 8.30122C28.4325 8.27247 28.4175 8.23622 28.4038 8.20747C28.3813 8.15622 28.3525 8.11247 28.3313 8.06122C28.3088 8.02497 28.2938 7.98872 28.2725 7.95247C28.2513 7.90997 28.2225 7.86497 28.2 7.81497L28.135 7.69872C28.1125 7.65497 28.085 7.61122 28.0625 7.56872C28.0411 7.52593 28.0169 7.48459 27.99 7.44497C27.9675 7.40122 27.94 7.36497 27.9175 7.32122C27.895 7.27747 27.8663 7.24122 27.845 7.19872L27.7725 7.08247C27.7425 7.03872 27.7213 6.99497 27.6925 6.95122C27.67 6.91497 27.6488 6.87872 27.62 6.84247C27.5667 6.76247 27.5133 6.68247 27.46 6.60247L27.365 6.46497C27.3438 6.43622 27.3225 6.39997 27.3 6.37122L27.1913 6.21872L27.1338 6.13872C27.075 6.05872 27.025 5.98622 26.9663 5.91372C26.5311 5.34342 26.0557 4.80497 25.5438 4.30247C25.1967 3.94186 24.8258 3.60486 24.4338 3.29372C24.1917 3.08349 23.9398 2.88493 23.6788 2.69872C23.2111 2.35018 22.7133 2.04398 22.1913 1.78372C20.9963 1.14977 19.7227 0.676507 18.4038 0.376223C18.2863 0.354973 18.17 0.326223 18.0613 0.303723H18.0538C17.9963 0.296223 17.945 0.281223 17.8875 0.274973C17.1325 0.137473 16.3625 0.0499731 15.5875 0.0349731H14.9475C14.005 0.0499731 13.075 0.151223 12.1975 0.339973C10.165 0.767473 8.37251 1.62497 7.18251 2.69872C7.11751 2.75622 7.06626 2.79997 7.03751 2.82872L7.00876 2.85872H7.01501L7.00876 2.86497L7.01501 2.85872C7.01501 2.85872 7.02251 2.85872 7.02251 2.85122L7.01501 2.85872C7.01501 2.85872 7.02251 2.85122 7.03001 2.85122C7.91501 2.32122 9.14251 1.88622 10.02 1.66747C10.1363 1.63872 10.26 1.60997 10.3763 1.57997C10.3975 1.57372 10.4263 1.57372 10.4488 1.56747C10.55 1.54497 10.6513 1.52247 10.7613 1.50122C10.775 1.50122 10.7963 1.49372 10.8113 1.49372C14.6938 0.782473 18.8313 1.94372 21.7113 4.69372C22.3332 5.2848 22.8794 5.95072 23.3375 6.67622C25.1738 9.65122 25 13.3962 23.57 15.6012C21.4875 18.81 16.835 19.9137 13.9538 17.105C12.9858 16.1663 12.4297 14.8819 12.4075 13.5337C12.3972 12.8897 12.526 12.251 12.785 11.6612C12.8875 11.4287 13.5763 10.1087 13.8888 10.1737C13.0975 10.0062 11.6163 10.3337 10.5788 11.8787C9.65001 13.2662 9.70126 15.3987 10.2738 16.9162C9.90801 16.1677 9.6609 15.3669 9.54126 14.5425C8.80126 9.54997 12.1613 5.28997 15.245 4.22997C13.5825 2.77872 9.41001 2.87997 6.31126 5.15872C4.50501 6.48747 3.21251 8.37497 2.53001 10.625C2.63251 9.36247 3.11126 7.47497 4.09126 5.55247C3.05376 6.08997 1.73251 7.78747 1.07876 9.35497C0.135011 11.6175 -0.191239 14.325 0.106261 16.9012L0.171261 17.4825C1.37626 24.565 7.55251 29.965 14.9775 29.965C23.2725 29.965 30 23.2375 30 14.9425C29.9925 14.6662 29.985 14.39 29.9713 14.1212Z" fill="white"/>
</g>
<defs>
<clipPath id="clip0">
<rect width="30" height="30" fill="white"/>
</clipPath>
</defs>
</svg>
