<svg width="30" height="30" viewBox="0 0 30 30" fill="none" xmlns="http://www.w3.org/2000/svg">
<path d="M27.1969 4.71562L21.7912 2.11312C21.486 1.96593 21.1425 1.91736 20.8084 1.97413C20.4742 2.03091 20.1661 2.19023 19.9266 2.42999L2.23125 18.5625C2.01655 18.7573 1.88803 19.0294 1.87397 19.319C1.8599 19.6086 1.96144 19.8919 2.15625 20.1066C2.17968 20.1319 2.20312 20.1562 2.22843 20.1787L3.67312 21.4912C3.8619 21.6631 4.10489 21.7633 4.3599 21.7746C4.61491 21.7859 4.86582 21.7076 5.06906 21.5531L26.3831 5.39062C26.5441 5.26845 26.736 5.19365 26.9372 5.17463C27.1384 5.15561 27.3409 5.19313 27.5219 5.28297C27.703 5.3728 27.8553 5.51138 27.9619 5.68311C28.0684 5.85484 28.1249 6.0529 28.125 6.25499V6.19218C28.125 5.88365 28.0379 5.58139 27.8737 5.32018C27.7095 5.05896 27.4749 4.84941 27.1969 4.71562Z" fill="white"/>
<path d="M27.1969 25.2844L21.7912 27.8878C21.4859 28.0346 21.1425 28.0829 20.8085 28.0262C20.4744 27.9694 20.1663 27.8104 19.9266 27.5709L2.23125 11.4375C2.01655 11.2427 1.88803 10.9706 1.87397 10.681C1.8599 10.3914 1.96144 10.1082 2.15625 9.89345C2.17968 9.86814 2.20312 9.84376 2.22843 9.82126L3.67312 8.50876C3.86209 8.33623 4.10564 8.23552 4.36128 8.22421C4.61691 8.2129 4.86841 8.29171 5.07187 8.44689L26.3831 24.6094C26.5441 24.7316 26.736 24.8064 26.9372 24.8254C27.1384 24.8444 27.3409 24.8069 27.5219 24.717C27.703 24.6272 27.8553 24.4886 27.9619 24.3169C28.0684 24.1452 28.1249 23.9471 28.125 23.745V23.8125C28.124 24.1202 28.0364 24.4214 27.8723 24.6817C27.7082 24.942 27.4741 25.1509 27.1969 25.2844Z" fill="white"/>
<path d="M21.7913 27.8878C21.4859 28.0346 21.1425 28.0829 20.8085 28.0262C20.4745 27.9694 20.1663 27.8103 19.9266 27.5709C20.0612 27.7038 20.2321 27.794 20.4177 27.8302C20.6034 27.8664 20.7956 27.847 20.9703 27.7744C21.145 27.7018 21.2944 27.5793 21.3997 27.4222C21.5051 27.2651 21.5617 27.0804 21.5625 26.8912V3.10874C21.5627 2.9187 21.5064 2.73288 21.4009 2.57484C21.2954 2.41679 21.1453 2.29363 20.9697 2.22094C20.7941 2.14825 20.6009 2.12932 20.4145 2.16653C20.2282 2.20375 20.0571 2.29544 19.9229 2.42999C20.1624 2.19031 20.4705 2.03098 20.8046 1.97405C21.1386 1.91711 21.4821 1.96538 21.7875 2.11218L27.1922 4.71093C27.4711 4.84405 27.7067 5.05332 27.8717 5.31458C28.0368 5.57585 28.1246 5.87846 28.125 6.18749V23.8125C28.1251 24.1213 28.0379 24.4238 27.8736 24.6852C27.7092 24.9466 27.4743 25.1563 27.196 25.29L21.7913 27.8878Z" fill="white"/>
</svg>
